<svg width="831" height="768" viewBox="0 0 831 768" fill="none" xmlns="http://www.w3.org/2000/svg">
<rect width="831" height="768" fill="#F5F5F5"/>
<g clip-path="url(#clip0_0_1)">
<rect width="831" height="768" fill="white"/>
<rect x="3.5" y="2.5" width="281" height="220" rx="47.5" stroke="#000B72" stroke-width="5"/>
<rect x="547.5" y="2.5" width="281" height="220" rx="47.5" stroke="#025100" stroke-width="5"/>
<path d="M224 311C224 283.386 246.386 261 274 261H557C584.614 261 607 283.386 607 311V359C607 386.614 584.614 409 557 409H415.5H274C246.386 409 224 386.614 224 359V311Z" fill="#D9D9D9"/>
<path d="M118.076 38.6094C118.076 38.1113 117.998 37.6719 117.842 37.291C117.695 36.9004 117.432 36.5488 117.051 36.2363C116.68 35.9238 116.162 35.626 115.498 35.3428C114.844 35.0596 114.014 34.7715 113.008 34.4785C111.953 34.166 111.001 33.8193 110.151 33.4385C109.302 33.0479 108.574 32.6035 107.969 32.1055C107.363 31.6074 106.899 31.0361 106.577 30.3916C106.255 29.7471 106.094 29.0098 106.094 28.1797C106.094 27.3496 106.265 26.583 106.606 25.8799C106.948 25.1768 107.437 24.5664 108.071 24.0488C108.716 23.5215 109.482 23.1113 110.371 22.8184C111.26 22.5254 112.251 22.3789 113.345 22.3789C114.946 22.3789 116.304 22.6865 117.417 23.3018C118.54 23.9072 119.395 24.7031 119.98 25.6895C120.566 26.666 120.859 27.7109 120.859 28.8242H118.047C118.047 28.0234 117.876 27.3154 117.534 26.7002C117.192 26.0752 116.675 25.5869 115.981 25.2354C115.288 24.874 114.409 24.6934 113.345 24.6934C112.339 24.6934 111.509 24.8447 110.854 25.1475C110.2 25.4502 109.712 25.8604 109.39 26.3779C109.077 26.8955 108.921 27.4863 108.921 28.1504C108.921 28.5996 109.014 29.0098 109.199 29.3809C109.395 29.7422 109.692 30.0791 110.093 30.3916C110.503 30.7041 111.021 30.9922 111.646 31.2559C112.28 31.5195 113.037 31.7734 113.916 32.0176C115.127 32.3594 116.172 32.7402 117.051 33.1602C117.93 33.5801 118.652 34.0537 119.219 34.5811C119.795 35.0986 120.22 35.6895 120.493 36.3535C120.776 37.0078 120.918 37.75 120.918 38.5801C120.918 39.4492 120.742 40.2354 120.391 40.9385C120.039 41.6416 119.536 42.2422 118.882 42.7402C118.228 43.2383 117.441 43.624 116.523 43.8975C115.615 44.1611 114.6 44.293 113.477 44.293C112.49 44.293 111.519 44.1562 110.562 43.8828C109.614 43.6094 108.75 43.1992 107.969 42.6523C107.197 42.1055 106.577 41.4316 106.108 40.6309C105.649 39.8203 105.42 38.8828 105.42 37.8184H108.232C108.232 38.5508 108.374 39.1807 108.657 39.708C108.94 40.2256 109.326 40.6553 109.814 40.9971C110.312 41.3389 110.874 41.5928 111.499 41.7588C112.134 41.915 112.793 41.9932 113.477 41.9932C114.463 41.9932 115.298 41.8564 115.981 41.583C116.665 41.3096 117.183 40.9189 117.534 40.4111C117.896 39.9033 118.076 39.3027 118.076 38.6094ZM123.394 36.251V35.9141C123.394 34.7715 123.56 33.7119 123.892 32.7354C124.224 31.749 124.702 30.8945 125.327 30.1719C125.952 29.4395 126.709 28.873 127.598 28.4727C128.486 28.0625 129.482 27.8574 130.586 27.8574C131.699 27.8574 132.7 28.0625 133.589 28.4727C134.487 28.873 135.249 29.4395 135.874 30.1719C136.509 30.8945 136.992 31.749 137.324 32.7354C137.656 33.7119 137.822 34.7715 137.822 35.9141V36.251C137.822 37.3936 137.656 38.4531 137.324 39.4297C136.992 40.4062 136.509 41.2607 135.874 41.9932C135.249 42.7158 134.492 43.2822 133.604 43.6924C132.725 44.0928 131.729 44.293 130.615 44.293C129.502 44.293 128.501 44.0928 127.612 43.6924C126.724 43.2822 125.962 42.7158 125.327 41.9932C124.702 41.2607 124.224 40.4062 123.892 39.4297C123.56 38.4531 123.394 37.3936 123.394 36.251ZM126.104 35.9141V36.251C126.104 37.042 126.196 37.7891 126.382 38.4922C126.567 39.1855 126.846 39.8008 127.217 40.3379C127.598 40.875 128.071 41.2998 128.638 41.6123C129.204 41.915 129.863 42.0664 130.615 42.0664C131.357 42.0664 132.007 41.915 132.563 41.6123C133.13 41.2998 133.599 40.875 133.97 40.3379C134.341 39.8008 134.619 39.1855 134.805 38.4922C135 37.7891 135.098 37.042 135.098 36.251V35.9141C135.098 35.1328 135 34.3955 134.805 33.7021C134.619 32.999 134.336 32.3789 133.955 31.8418C133.584 31.2949 133.115 30.8652 132.549 30.5527C131.992 30.2402 131.338 30.084 130.586 30.084C129.844 30.084 129.189 30.2402 128.623 30.5527C128.066 30.8652 127.598 31.2949 127.217 31.8418C126.846 32.3789 126.567 32.999 126.382 33.7021C126.196 34.3955 126.104 35.1328 126.104 35.9141ZM147.563 42.0664C148.208 42.0664 148.804 41.9346 149.351 41.6709C149.897 41.4072 150.347 41.0459 150.698 40.5869C151.05 40.1182 151.25 39.5859 151.299 38.9902H153.877C153.828 39.9277 153.511 40.8018 152.925 41.6123C152.349 42.4131 151.592 43.0625 150.654 43.5605C149.717 44.0488 148.687 44.293 147.563 44.293C146.372 44.293 145.332 44.083 144.443 43.6631C143.564 43.2432 142.832 42.667 142.246 41.9346C141.67 41.2021 141.235 40.3623 140.942 39.415C140.659 38.458 140.518 37.4473 140.518 36.3828V35.7676C140.518 34.7031 140.659 33.6973 140.942 32.75C141.235 31.793 141.67 30.9482 142.246 30.2158C142.832 29.4834 143.564 28.9072 144.443 28.4873C145.332 28.0674 146.372 27.8574 147.563 27.8574C148.804 27.8574 149.888 28.1113 150.815 28.6191C151.743 29.1172 152.471 29.8008 152.998 30.6699C153.535 31.5293 153.828 32.5059 153.877 33.5996H151.299C151.25 32.9453 151.064 32.3545 150.742 31.8271C150.43 31.2998 150 30.8799 149.453 30.5674C148.916 30.2451 148.286 30.084 147.563 30.084C146.733 30.084 146.035 30.25 145.469 30.582C144.912 30.9043 144.468 31.3438 144.136 31.9004C143.813 32.4473 143.579 33.0576 143.433 33.7314C143.296 34.3955 143.228 35.0742 143.228 35.7676V36.3828C143.228 37.0762 143.296 37.7598 143.433 38.4336C143.569 39.1074 143.799 39.7178 144.121 40.2646C144.453 40.8115 144.897 41.251 145.454 41.583C146.021 41.9053 146.724 42.0664 147.563 42.0664ZM159.868 28.1504V44H157.144V28.1504H159.868ZM156.938 23.9463C156.938 23.5068 157.07 23.1357 157.334 22.833C157.607 22.5303 158.008 22.3789 158.535 22.3789C159.053 22.3789 159.448 22.5303 159.722 22.833C160.005 23.1357 160.146 23.5068 160.146 23.9463C160.146 24.3662 160.005 24.7275 159.722 25.0303C159.448 25.3232 159.053 25.4697 158.535 25.4697C158.008 25.4697 157.607 25.3232 157.334 25.0303C157.07 24.7275 156.938 24.3662 156.938 23.9463ZM173.564 41.29V33.1309C173.564 32.5059 173.438 31.9639 173.184 31.5049C172.939 31.0361 172.568 30.6748 172.07 30.4209C171.572 30.167 170.957 30.04 170.225 30.04C169.541 30.04 168.94 30.1572 168.423 30.3916C167.915 30.626 167.515 30.9336 167.222 31.3145C166.938 31.6953 166.797 32.1055 166.797 32.5449H164.087C164.087 31.9785 164.233 31.417 164.526 30.8604C164.819 30.3037 165.239 29.8008 165.786 29.3516C166.343 28.8926 167.007 28.5312 167.778 28.2676C168.56 27.9941 169.429 27.8574 170.386 27.8574C171.538 27.8574 172.554 28.0527 173.433 28.4434C174.321 28.834 175.015 29.4248 175.513 30.2158C176.021 30.9971 176.274 31.9785 176.274 33.1602V40.543C176.274 41.0703 176.318 41.6318 176.406 42.2275C176.504 42.8232 176.646 43.3359 176.831 43.7656V44H174.004C173.867 43.6875 173.76 43.2725 173.682 42.7549C173.604 42.2275 173.564 41.7393 173.564 41.29ZM174.033 34.3906L174.062 36.2949H171.323C170.552 36.2949 169.863 36.3584 169.258 36.4854C168.652 36.6025 168.145 36.7832 167.734 37.0273C167.324 37.2715 167.012 37.5791 166.797 37.9502C166.582 38.3115 166.475 38.7363 166.475 39.2246C166.475 39.7227 166.587 40.1768 166.812 40.5869C167.036 40.9971 167.373 41.3242 167.822 41.5684C168.281 41.8027 168.843 41.9199 169.507 41.9199C170.337 41.9199 171.069 41.7441 171.704 41.3926C172.339 41.041 172.842 40.6113 173.213 40.1035C173.594 39.5957 173.799 39.1025 173.828 38.624L174.985 39.9277C174.917 40.3379 174.731 40.792 174.429 41.29C174.126 41.7881 173.721 42.2666 173.213 42.7256C172.715 43.1748 172.119 43.5508 171.426 43.8535C170.742 44.1465 169.971 44.293 169.111 44.293C168.037 44.293 167.095 44.083 166.284 43.6631C165.483 43.2432 164.858 42.6816 164.409 41.9785C163.97 41.2656 163.75 40.4697 163.75 39.5908C163.75 38.7412 163.916 37.9941 164.248 37.3496C164.58 36.6953 165.059 36.1533 165.684 35.7236C166.309 35.2842 167.061 34.9521 167.939 34.7275C168.818 34.5029 169.8 34.3906 170.884 34.3906H174.033ZM183.481 21.5V44H180.757V21.5H183.481Z" fill="#000B72"/>
<path d="M608.4 41.7002V44H597.106V41.7002H608.4ZM597.678 22.6719V44H594.851V22.6719H597.678ZM606.906 31.8418V34.1416H597.106V31.8418H606.906ZM608.254 22.6719V24.9863H597.106V22.6719H608.254ZM614.201 31.5342V44H611.491V28.1504H614.055L614.201 31.5342ZM613.557 35.4746L612.429 35.4307C612.438 34.3467 612.6 33.3457 612.912 32.4277C613.225 31.5 613.664 30.6943 614.23 30.0107C614.797 29.3271 615.471 28.7998 616.252 28.4287C617.043 28.0479 617.917 27.8574 618.874 27.8574C619.655 27.8574 620.358 27.9648 620.983 28.1797C621.608 28.3848 622.141 28.7168 622.58 29.1758C623.029 29.6348 623.371 30.2305 623.605 30.9629C623.84 31.6855 623.957 32.5693 623.957 33.6143V44H621.232V33.585C621.232 32.7549 621.11 32.0908 620.866 31.5928C620.622 31.085 620.266 30.7188 619.797 30.4941C619.328 30.2598 618.752 30.1426 618.068 30.1426C617.395 30.1426 616.779 30.2842 616.223 30.5674C615.676 30.8506 615.202 31.2412 614.802 31.7393C614.411 32.2373 614.104 32.8086 613.879 33.4531C613.664 34.0879 613.557 34.7617 613.557 35.4746ZM632.893 41.5537L637.229 28.1504H639.997L634.299 44H632.482L632.893 41.5537ZM629.274 28.1504L633.742 41.627L634.05 44H632.233L626.491 28.1504H629.274ZM645.549 28.1504V44H642.824V28.1504H645.549ZM642.619 23.9463C642.619 23.5068 642.751 23.1357 643.015 22.833C643.288 22.5303 643.688 22.3789 644.216 22.3789C644.733 22.3789 645.129 22.5303 645.402 22.833C645.686 23.1357 645.827 23.5068 645.827 23.9463C645.827 24.3662 645.686 24.7275 645.402 25.0303C645.129 25.3232 644.733 25.4697 644.216 25.4697C643.688 25.4697 643.288 25.3232 643.015 25.0303C642.751 24.7275 642.619 24.3662 642.619 23.9463ZM652.609 30.6406V44H649.899V28.1504H652.536L652.609 30.6406ZM657.561 28.0625L657.546 30.582C657.321 30.5332 657.106 30.5039 656.901 30.4941C656.706 30.4746 656.481 30.4648 656.228 30.4648C655.603 30.4648 655.051 30.5625 654.572 30.7578C654.094 30.9531 653.688 31.2266 653.356 31.5781C653.024 31.9297 652.761 32.3496 652.565 32.8379C652.38 33.3164 652.258 33.8438 652.199 34.4199L651.438 34.8594C651.438 33.9023 651.53 33.0039 651.716 32.1641C651.911 31.3242 652.209 30.582 652.609 29.9375C653.01 29.2832 653.518 28.7754 654.133 28.4141C654.758 28.043 655.5 27.8574 656.359 27.8574C656.555 27.8574 656.779 27.8818 657.033 27.9307C657.287 27.9697 657.463 28.0137 657.561 28.0625ZM659.055 36.251V35.9141C659.055 34.7715 659.221 33.7119 659.553 32.7354C659.885 31.749 660.363 30.8945 660.988 30.1719C661.613 29.4395 662.37 28.873 663.259 28.4727C664.147 28.0625 665.144 27.8574 666.247 27.8574C667.36 27.8574 668.361 28.0625 669.25 28.4727C670.148 28.873 670.91 29.4395 671.535 30.1719C672.17 30.8945 672.653 31.749 672.985 32.7354C673.317 33.7119 673.483 34.7715 673.483 35.9141V36.251C673.483 37.3936 673.317 38.4531 672.985 39.4297C672.653 40.4062 672.17 41.2607 671.535 41.9932C670.91 42.7158 670.153 43.2822 669.265 43.6924C668.386 44.0928 667.39 44.293 666.276 44.293C665.163 44.293 664.162 44.0928 663.273 43.6924C662.385 43.2822 661.623 42.7158 660.988 41.9932C660.363 41.2607 659.885 40.4062 659.553 39.4297C659.221 38.4531 659.055 37.3936 659.055 36.251ZM661.765 35.9141V36.251C661.765 37.042 661.857 37.7891 662.043 38.4922C662.229 39.1855 662.507 39.8008 662.878 40.3379C663.259 40.875 663.732 41.2998 664.299 41.6123C664.865 41.915 665.524 42.0664 666.276 42.0664C667.019 42.0664 667.668 41.915 668.225 41.6123C668.791 41.2998 669.26 40.875 669.631 40.3379C670.002 39.8008 670.28 39.1855 670.466 38.4922C670.661 37.7891 670.759 37.042 670.759 36.251V35.9141C670.759 35.1328 670.661 34.3955 670.466 33.7021C670.28 32.999 669.997 32.3789 669.616 31.8418C669.245 31.2949 668.776 30.8652 668.21 30.5527C667.653 30.2402 666.999 30.084 666.247 30.084C665.505 30.084 664.851 30.2402 664.284 30.5527C663.728 30.8652 663.259 31.2949 662.878 31.8418C662.507 32.3789 662.229 32.999 662.043 33.7021C661.857 34.3955 661.765 35.1328 661.765 35.9141ZM679.592 31.5342V44H676.882V28.1504H679.445L679.592 31.5342ZM678.947 35.4746L677.819 35.4307C677.829 34.3467 677.99 33.3457 678.303 32.4277C678.615 31.5 679.055 30.6943 679.621 30.0107C680.188 29.3271 680.861 28.7998 681.643 28.4287C682.434 28.0479 683.308 27.8574 684.265 27.8574C685.046 27.8574 685.749 27.9648 686.374 28.1797C686.999 28.3848 687.531 28.7168 687.971 29.1758C688.42 29.6348 688.762 30.2305 688.996 30.9629C689.23 31.6855 689.348 32.5693 689.348 33.6143V44H686.623V33.585C686.623 32.7549 686.501 32.0908 686.257 31.5928C686.013 31.085 685.656 30.7188 685.188 30.4941C684.719 30.2598 684.143 30.1426 683.459 30.1426C682.785 30.1426 682.17 30.2842 681.613 30.5674C681.066 30.8506 680.593 31.2412 680.192 31.7393C679.802 32.2373 679.494 32.8086 679.27 33.4531C679.055 34.0879 678.947 34.7617 678.947 35.4746ZM696.159 31.2998V44H693.435V28.1504H696.013L696.159 31.2998ZM695.603 35.4746L694.343 35.4307C694.353 34.3467 694.494 33.3457 694.768 32.4277C695.041 31.5 695.446 30.6943 695.983 30.0107C696.521 29.3271 697.189 28.7998 697.99 28.4287C698.791 28.0479 699.719 27.8574 700.773 27.8574C701.516 27.8574 702.199 27.9648 702.824 28.1797C703.449 28.3848 703.991 28.7119 704.45 29.1611C704.909 29.6104 705.266 30.1865 705.52 30.8896C705.773 31.5928 705.9 32.4424 705.9 33.4385V44H703.19V33.5703C703.19 32.7402 703.049 32.0762 702.766 31.5781C702.492 31.0801 702.102 30.7188 701.594 30.4941C701.086 30.2598 700.49 30.1426 699.807 30.1426C699.006 30.1426 698.337 30.2842 697.8 30.5674C697.263 30.8506 696.833 31.2412 696.511 31.7393C696.188 32.2373 695.954 32.8086 695.808 33.4531C695.671 34.0879 695.603 34.7617 695.603 35.4746ZM705.871 33.9805L704.055 34.5371C704.064 33.668 704.206 32.833 704.479 32.0322C704.763 31.2314 705.168 30.5186 705.695 29.8936C706.232 29.2686 706.892 28.7754 707.673 28.4141C708.454 28.043 709.348 27.8574 710.354 27.8574C711.203 27.8574 711.955 27.9697 712.609 28.1943C713.273 28.4189 713.83 28.7656 714.279 29.2344C714.738 29.6934 715.085 30.2842 715.319 31.0068C715.554 31.7295 715.671 32.5889 715.671 33.585V44H712.946V33.5557C712.946 32.667 712.805 31.9785 712.521 31.4902C712.248 30.9922 711.857 30.6455 711.35 30.4502C710.852 30.2451 710.256 30.1426 709.562 30.1426C708.967 30.1426 708.439 30.2451 707.98 30.4502C707.521 30.6553 707.136 30.9385 706.823 31.2998C706.511 31.6514 706.271 32.0566 706.105 32.5156C705.949 32.9746 705.871 33.4629 705.871 33.9805ZM726.35 44.293C725.246 44.293 724.245 44.1074 723.347 43.7363C722.458 43.3555 721.691 42.8232 721.047 42.1396C720.412 41.4561 719.924 40.6455 719.582 39.708C719.24 38.7705 719.069 37.7451 719.069 36.6318V36.0166C719.069 34.7275 719.26 33.5801 719.641 32.5742C720.021 31.5586 720.539 30.6992 721.193 29.9961C721.848 29.293 722.59 28.7607 723.42 28.3994C724.25 28.0381 725.109 27.8574 725.998 27.8574C727.131 27.8574 728.107 28.0527 728.928 28.4434C729.758 28.834 730.437 29.3809 730.964 30.084C731.491 30.7773 731.882 31.5977 732.136 32.5449C732.39 33.4824 732.517 34.5078 732.517 35.6211V36.8369H720.681V34.625H729.807V34.4199C729.768 33.7168 729.621 33.0332 729.367 32.3691C729.123 31.7051 728.732 31.1582 728.195 30.7285C727.658 30.2988 726.926 30.084 725.998 30.084C725.383 30.084 724.816 30.2158 724.299 30.4795C723.781 30.7334 723.337 31.1143 722.966 31.6221C722.595 32.1299 722.307 32.75 722.102 33.4824C721.896 34.2148 721.794 35.0596 721.794 36.0166V36.6318C721.794 37.3838 721.896 38.0918 722.102 38.7559C722.316 39.4102 722.624 39.9863 723.024 40.4844C723.435 40.9824 723.928 41.373 724.504 41.6562C725.09 41.9395 725.754 42.0811 726.496 42.0811C727.453 42.0811 728.264 41.8857 728.928 41.4951C729.592 41.1045 730.173 40.582 730.671 39.9277L732.312 41.2314C731.97 41.749 731.535 42.2422 731.008 42.7109C730.48 43.1797 729.831 43.5605 729.06 43.8535C728.298 44.1465 727.395 44.293 726.35 44.293ZM738.391 31.5342V44H735.681V28.1504H738.244L738.391 31.5342ZM737.746 35.4746L736.618 35.4307C736.628 34.3467 736.789 33.3457 737.102 32.4277C737.414 31.5 737.854 30.6943 738.42 30.0107C738.986 29.3271 739.66 28.7998 740.441 28.4287C741.232 28.0479 742.106 27.8574 743.063 27.8574C743.845 27.8574 744.548 27.9648 745.173 28.1797C745.798 28.3848 746.33 28.7168 746.77 29.1758C747.219 29.6348 747.561 30.2305 747.795 30.9629C748.029 31.6855 748.146 32.5693 748.146 33.6143V44H745.422V33.585C745.422 32.7549 745.3 32.0908 745.056 31.5928C744.812 31.085 744.455 30.7188 743.986 30.4941C743.518 30.2598 742.941 30.1426 742.258 30.1426C741.584 30.1426 740.969 30.2842 740.412 30.5674C739.865 30.8506 739.392 31.2412 738.991 31.7393C738.601 32.2373 738.293 32.8086 738.068 33.4531C737.854 34.0879 737.746 34.7617 737.746 35.4746ZM758.898 28.1504V30.2305H750.329V28.1504H758.898ZM753.229 24.2979H755.939V40.0742C755.939 40.6113 756.022 41.0166 756.188 41.29C756.354 41.5635 756.569 41.7441 756.833 41.832C757.097 41.9199 757.38 41.9639 757.683 41.9639C757.907 41.9639 758.142 41.9443 758.386 41.9053C758.64 41.8564 758.83 41.8174 758.957 41.7881L758.972 44C758.757 44.0684 758.474 44.1318 758.122 44.1904C757.78 44.2588 757.365 44.293 756.877 44.293C756.213 44.293 755.603 44.1611 755.046 43.8975C754.489 43.6338 754.045 43.1943 753.713 42.5791C753.391 41.9541 753.229 41.1143 753.229 40.0596V24.2979ZM771.423 41.29V33.1309C771.423 32.5059 771.296 31.9639 771.042 31.5049C770.798 31.0361 770.427 30.6748 769.929 30.4209C769.431 30.167 768.815 30.04 768.083 30.04C767.399 30.04 766.799 30.1572 766.281 30.3916C765.773 30.626 765.373 30.9336 765.08 31.3145C764.797 31.6953 764.655 32.1055 764.655 32.5449H761.945C761.945 31.9785 762.092 31.417 762.385 30.8604C762.678 30.3037 763.098 29.8008 763.645 29.3516C764.201 28.8926 764.865 28.5312 765.637 28.2676C766.418 27.9941 767.287 27.8574 768.244 27.8574C769.396 27.8574 770.412 28.0527 771.291 28.4434C772.18 28.834 772.873 29.4248 773.371 30.2158C773.879 30.9971 774.133 31.9785 774.133 33.1602V40.543C774.133 41.0703 774.177 41.6318 774.265 42.2275C774.362 42.8232 774.504 43.3359 774.689 43.7656V44H771.862C771.726 43.6875 771.618 43.2725 771.54 42.7549C771.462 42.2275 771.423 41.7393 771.423 41.29ZM771.892 34.3906L771.921 36.2949H769.182C768.41 36.2949 767.722 36.3584 767.116 36.4854C766.511 36.6025 766.003 36.7832 765.593 37.0273C765.183 37.2715 764.87 37.5791 764.655 37.9502C764.44 38.3115 764.333 38.7363 764.333 39.2246C764.333 39.7227 764.445 40.1768 764.67 40.5869C764.895 40.9971 765.231 41.3242 765.681 41.5684C766.14 41.8027 766.701 41.9199 767.365 41.9199C768.195 41.9199 768.928 41.7441 769.562 41.3926C770.197 41.041 770.7 40.6113 771.071 40.1035C771.452 39.5957 771.657 39.1025 771.687 38.624L772.844 39.9277C772.775 40.3379 772.59 40.792 772.287 41.29C771.984 41.7881 771.579 42.2666 771.071 42.7256C770.573 43.1748 769.978 43.5508 769.284 43.8535C768.601 44.1465 767.829 44.293 766.97 44.293C765.896 44.293 764.953 44.083 764.143 43.6631C763.342 43.2432 762.717 42.6816 762.268 41.9785C761.828 41.2656 761.608 40.4697 761.608 39.5908C761.608 38.7412 761.774 37.9941 762.106 37.3496C762.438 36.6953 762.917 36.1533 763.542 35.7236C764.167 35.2842 764.919 34.9521 765.798 34.7275C766.677 34.5029 767.658 34.3906 768.742 34.3906H771.892ZM781.34 21.5V44H778.615V21.5H781.34Z" fill="#025100"/>
<path d="M266.747 328H262.294L262.323 325.7H266.747C268.271 325.7 269.54 325.383 270.556 324.748C271.571 324.104 272.333 323.205 272.841 322.053C273.358 320.891 273.617 319.533 273.617 317.98V316.677C273.617 315.456 273.471 314.372 273.178 313.425C272.885 312.468 272.455 311.662 271.889 311.008C271.322 310.344 270.629 309.841 269.809 309.499C268.998 309.157 268.065 308.986 267.011 308.986H262.206V306.672H267.011C268.407 306.672 269.682 306.906 270.834 307.375C271.986 307.834 272.978 308.503 273.808 309.382C274.647 310.251 275.292 311.306 275.741 312.546C276.19 313.776 276.415 315.163 276.415 316.706V317.98C276.415 319.523 276.19 320.915 275.741 322.155C275.292 323.386 274.643 324.436 273.793 325.305C272.953 326.174 271.938 326.843 270.746 327.312C269.564 327.771 268.231 328 266.747 328ZM263.803 306.672V328H260.976V306.672H263.803ZM289.599 325.29V317.131C289.599 316.506 289.472 315.964 289.218 315.505C288.974 315.036 288.603 314.675 288.104 314.421C287.606 314.167 286.991 314.04 286.259 314.04C285.575 314.04 284.975 314.157 284.457 314.392C283.949 314.626 283.549 314.934 283.256 315.314C282.973 315.695 282.831 316.105 282.831 316.545H280.121C280.121 315.979 280.268 315.417 280.561 314.86C280.854 314.304 281.273 313.801 281.82 313.352C282.377 312.893 283.041 312.531 283.812 312.268C284.594 311.994 285.463 311.857 286.42 311.857C287.572 311.857 288.588 312.053 289.467 312.443C290.355 312.834 291.049 313.425 291.547 314.216C292.055 314.997 292.309 315.979 292.309 317.16V324.543C292.309 325.07 292.353 325.632 292.44 326.228C292.538 326.823 292.68 327.336 292.865 327.766V328H290.038C289.901 327.688 289.794 327.272 289.716 326.755C289.638 326.228 289.599 325.739 289.599 325.29ZM290.067 318.391L290.097 320.295H287.357C286.586 320.295 285.897 320.358 285.292 320.485C284.687 320.603 284.179 320.783 283.769 321.027C283.358 321.271 283.046 321.579 282.831 321.95C282.616 322.312 282.509 322.736 282.509 323.225C282.509 323.723 282.621 324.177 282.846 324.587C283.07 324.997 283.407 325.324 283.856 325.568C284.315 325.803 284.877 325.92 285.541 325.92C286.371 325.92 287.104 325.744 287.738 325.393C288.373 325.041 288.876 324.611 289.247 324.104C289.628 323.596 289.833 323.103 289.862 322.624L291.02 323.928C290.951 324.338 290.766 324.792 290.463 325.29C290.16 325.788 289.755 326.267 289.247 326.726C288.749 327.175 288.153 327.551 287.46 327.854C286.776 328.146 286.005 328.293 285.146 328.293C284.071 328.293 283.129 328.083 282.318 327.663C281.518 327.243 280.893 326.682 280.443 325.979C280.004 325.266 279.784 324.47 279.784 323.591C279.784 322.741 279.95 321.994 280.282 321.35C280.614 320.695 281.093 320.153 281.718 319.724C282.343 319.284 283.095 318.952 283.974 318.728C284.853 318.503 285.834 318.391 286.918 318.391H290.067ZM303.207 312.15V314.23H294.638V312.15H303.207ZM297.538 308.298H300.248V324.074C300.248 324.611 300.331 325.017 300.497 325.29C300.663 325.563 300.878 325.744 301.142 325.832C301.405 325.92 301.688 325.964 301.991 325.964C302.216 325.964 302.45 325.944 302.694 325.905C302.948 325.856 303.139 325.817 303.266 325.788L303.28 328C303.065 328.068 302.782 328.132 302.431 328.19C302.089 328.259 301.674 328.293 301.186 328.293C300.521 328.293 299.911 328.161 299.354 327.897C298.798 327.634 298.354 327.194 298.021 326.579C297.699 325.954 297.538 325.114 297.538 324.06V308.298ZM315.731 325.29V317.131C315.731 316.506 315.604 315.964 315.351 315.505C315.106 315.036 314.735 314.675 314.237 314.421C313.739 314.167 313.124 314.04 312.392 314.04C311.708 314.04 311.107 314.157 310.59 314.392C310.082 314.626 309.682 314.934 309.389 315.314C309.105 315.695 308.964 316.105 308.964 316.545H306.254C306.254 315.979 306.4 315.417 306.693 314.86C306.986 314.304 307.406 313.801 307.953 313.352C308.51 312.893 309.174 312.531 309.945 312.268C310.727 311.994 311.596 311.857 312.553 311.857C313.705 311.857 314.721 312.053 315.6 312.443C316.488 312.834 317.182 313.425 317.68 314.216C318.188 314.997 318.441 315.979 318.441 317.16V324.543C318.441 325.07 318.485 325.632 318.573 326.228C318.671 326.823 318.812 327.336 318.998 327.766V328H316.171C316.034 327.688 315.927 327.272 315.849 326.755C315.771 326.228 315.731 325.739 315.731 325.29ZM316.2 318.391L316.229 320.295H313.49C312.719 320.295 312.03 320.358 311.425 320.485C310.819 320.603 310.312 320.783 309.901 321.027C309.491 321.271 309.179 321.579 308.964 321.95C308.749 322.312 308.642 322.736 308.642 323.225C308.642 323.723 308.754 324.177 308.979 324.587C309.203 324.997 309.54 325.324 309.989 325.568C310.448 325.803 311.01 325.92 311.674 325.92C312.504 325.92 313.236 325.744 313.871 325.393C314.506 325.041 315.009 324.611 315.38 324.104C315.761 323.596 315.966 323.103 315.995 322.624L317.152 323.928C317.084 324.338 316.898 324.792 316.596 325.29C316.293 325.788 315.888 326.267 315.38 326.726C314.882 327.175 314.286 327.551 313.593 327.854C312.909 328.146 312.138 328.293 311.278 328.293C310.204 328.293 309.262 328.083 308.451 327.663C307.65 327.243 307.025 326.682 306.576 325.979C306.137 325.266 305.917 324.47 305.917 323.591C305.917 322.741 306.083 321.994 306.415 321.35C306.747 320.695 307.226 320.153 307.851 319.724C308.476 319.284 309.228 318.952 310.106 318.728C310.985 318.503 311.967 318.391 313.051 318.391H316.2ZM328.344 317.819V320.046H321.195V317.819H328.344ZM340.985 324.924V305.5H343.71V328H341.22L340.985 324.924ZM330.321 320.251V319.943C330.321 318.732 330.468 317.634 330.761 316.647C331.063 315.651 331.488 314.797 332.035 314.084C332.592 313.371 333.251 312.824 334.013 312.443C334.784 312.053 335.644 311.857 336.591 311.857C337.587 311.857 338.456 312.033 339.198 312.385C339.95 312.727 340.585 313.229 341.103 313.894C341.63 314.548 342.045 315.339 342.348 316.267C342.65 317.194 342.86 318.244 342.978 319.416V320.764C342.87 321.926 342.66 322.971 342.348 323.898C342.045 324.826 341.63 325.617 341.103 326.271C340.585 326.926 339.95 327.429 339.198 327.78C338.446 328.122 337.567 328.293 336.562 328.293C335.634 328.293 334.784 328.093 334.013 327.692C333.251 327.292 332.592 326.73 332.035 326.008C331.488 325.285 331.063 324.436 330.761 323.459C330.468 322.473 330.321 321.403 330.321 320.251ZM333.046 319.943V320.251C333.046 321.042 333.124 321.784 333.28 322.478C333.446 323.171 333.7 323.781 334.042 324.309C334.384 324.836 334.818 325.251 335.346 325.554C335.873 325.847 336.503 325.993 337.235 325.993C338.134 325.993 338.871 325.803 339.447 325.422C340.033 325.041 340.502 324.538 340.854 323.913C341.205 323.288 341.479 322.609 341.674 321.877V318.347C341.557 317.81 341.386 317.292 341.161 316.794C340.946 316.286 340.663 315.837 340.312 315.446C339.97 315.046 339.545 314.729 339.037 314.494C338.539 314.26 337.948 314.143 337.265 314.143C336.522 314.143 335.883 314.299 335.346 314.611C334.818 314.914 334.384 315.334 334.042 315.871C333.7 316.398 333.446 317.014 333.28 317.717C333.124 318.41 333.046 319.152 333.046 319.943ZM350.639 314.641V328H347.929V312.15H350.565L350.639 314.641ZM355.59 312.062L355.575 314.582C355.351 314.533 355.136 314.504 354.931 314.494C354.735 314.475 354.511 314.465 354.257 314.465C353.632 314.465 353.08 314.562 352.602 314.758C352.123 314.953 351.718 315.227 351.386 315.578C351.054 315.93 350.79 316.35 350.595 316.838C350.409 317.316 350.287 317.844 350.229 318.42L349.467 318.859C349.467 317.902 349.56 317.004 349.745 316.164C349.94 315.324 350.238 314.582 350.639 313.938C351.039 313.283 351.547 312.775 352.162 312.414C352.787 312.043 353.529 311.857 354.389 311.857C354.584 311.857 354.809 311.882 355.062 311.931C355.316 311.97 355.492 312.014 355.59 312.062ZM361.039 312.15V328H358.314V312.15H361.039ZM358.109 307.946C358.109 307.507 358.241 307.136 358.505 306.833C358.778 306.53 359.179 306.379 359.706 306.379C360.224 306.379 360.619 306.53 360.893 306.833C361.176 307.136 361.317 307.507 361.317 307.946C361.317 308.366 361.176 308.728 360.893 309.03C360.619 309.323 360.224 309.47 359.706 309.47C359.179 309.47 358.778 309.323 358.505 309.03C358.241 308.728 358.109 308.366 358.109 307.946ZM370.209 325.554L374.545 312.15H377.313L371.615 328H369.799L370.209 325.554ZM366.591 312.15L371.059 325.627L371.366 328H369.55L363.808 312.15H366.591ZM386.293 328.293C385.189 328.293 384.188 328.107 383.29 327.736C382.401 327.355 381.635 326.823 380.99 326.14C380.355 325.456 379.867 324.646 379.525 323.708C379.184 322.771 379.013 321.745 379.013 320.632V320.017C379.013 318.728 379.203 317.58 379.584 316.574C379.965 315.559 380.482 314.699 381.137 313.996C381.791 313.293 382.533 312.761 383.363 312.399C384.193 312.038 385.053 311.857 385.941 311.857C387.074 311.857 388.051 312.053 388.871 312.443C389.701 312.834 390.38 313.381 390.907 314.084C391.435 314.777 391.825 315.598 392.079 316.545C392.333 317.482 392.46 318.508 392.46 319.621V320.837H380.624V318.625H389.75V318.42C389.711 317.717 389.564 317.033 389.311 316.369C389.066 315.705 388.676 315.158 388.139 314.729C387.602 314.299 386.869 314.084 385.941 314.084C385.326 314.084 384.76 314.216 384.242 314.479C383.725 314.733 383.28 315.114 382.909 315.622C382.538 316.13 382.25 316.75 382.045 317.482C381.84 318.215 381.737 319.06 381.737 320.017V320.632C381.737 321.384 381.84 322.092 382.045 322.756C382.26 323.41 382.567 323.986 382.968 324.484C383.378 324.982 383.871 325.373 384.447 325.656C385.033 325.939 385.697 326.081 386.439 326.081C387.396 326.081 388.207 325.886 388.871 325.495C389.535 325.104 390.116 324.582 390.614 323.928L392.255 325.231C391.913 325.749 391.479 326.242 390.951 326.711C390.424 327.18 389.774 327.561 389.003 327.854C388.241 328.146 387.338 328.293 386.293 328.293ZM398.334 315.534V328H395.624V312.15H398.188L398.334 315.534ZM397.689 319.475L396.562 319.431C396.571 318.347 396.732 317.346 397.045 316.428C397.357 315.5 397.797 314.694 398.363 314.011C398.93 313.327 399.604 312.8 400.385 312.429C401.176 312.048 402.05 311.857 403.007 311.857C403.788 311.857 404.491 311.965 405.116 312.18C405.741 312.385 406.273 312.717 406.713 313.176C407.162 313.635 407.504 314.23 407.738 314.963C407.973 315.686 408.09 316.569 408.09 317.614V328H405.365V317.585C405.365 316.755 405.243 316.091 404.999 315.593C404.755 315.085 404.398 314.719 403.93 314.494C403.461 314.26 402.885 314.143 402.201 314.143C401.527 314.143 400.912 314.284 400.355 314.567C399.809 314.851 399.335 315.241 398.935 315.739C398.544 316.237 398.236 316.809 398.012 317.453C397.797 318.088 397.689 318.762 397.689 319.475ZM426.225 328.293C425.121 328.293 424.12 328.107 423.222 327.736C422.333 327.355 421.566 326.823 420.922 326.14C420.287 325.456 419.799 324.646 419.457 323.708C419.115 322.771 418.944 321.745 418.944 320.632V320.017C418.944 318.728 419.135 317.58 419.516 316.574C419.896 315.559 420.414 314.699 421.068 313.996C421.723 313.293 422.465 312.761 423.295 312.399C424.125 312.038 424.984 311.857 425.873 311.857C427.006 311.857 427.982 312.053 428.803 312.443C429.633 312.834 430.312 313.381 430.839 314.084C431.366 314.777 431.757 315.598 432.011 316.545C432.265 317.482 432.392 318.508 432.392 319.621V320.837H420.556V318.625H429.682V318.42C429.643 317.717 429.496 317.033 429.242 316.369C428.998 315.705 428.607 315.158 428.07 314.729C427.533 314.299 426.801 314.084 425.873 314.084C425.258 314.084 424.691 314.216 424.174 314.479C423.656 314.733 423.212 315.114 422.841 315.622C422.47 316.13 422.182 316.75 421.977 317.482C421.771 318.215 421.669 319.06 421.669 320.017V320.632C421.669 321.384 421.771 322.092 421.977 322.756C422.191 323.41 422.499 323.986 422.899 324.484C423.31 324.982 423.803 325.373 424.379 325.656C424.965 325.939 425.629 326.081 426.371 326.081C427.328 326.081 428.139 325.886 428.803 325.495C429.467 325.104 430.048 324.582 430.546 323.928L432.187 325.231C431.845 325.749 431.41 326.242 430.883 326.711C430.355 327.18 429.706 327.561 428.935 327.854C428.173 328.146 427.27 328.293 426.225 328.293ZM438.266 315.534V328H435.556V312.15H438.119L438.266 315.534ZM437.621 319.475L436.493 319.431C436.503 318.347 436.664 317.346 436.977 316.428C437.289 315.5 437.729 314.694 438.295 314.011C438.861 313.327 439.535 312.8 440.316 312.429C441.107 312.048 441.981 311.857 442.938 311.857C443.72 311.857 444.423 311.965 445.048 312.18C445.673 312.385 446.205 312.717 446.645 313.176C447.094 313.635 447.436 314.23 447.67 314.963C447.904 315.686 448.021 316.569 448.021 317.614V328H445.297V317.585C445.297 316.755 445.175 316.091 444.931 315.593C444.687 315.085 444.33 314.719 443.861 314.494C443.393 314.26 442.816 314.143 442.133 314.143C441.459 314.143 440.844 314.284 440.287 314.567C439.74 314.851 439.267 315.241 438.866 315.739C438.476 316.237 438.168 316.809 437.943 317.453C437.729 318.088 437.621 318.762 437.621 319.475ZM462.406 312.15H464.867V327.663C464.867 329.06 464.584 330.251 464.018 331.237C463.451 332.224 462.66 332.971 461.645 333.479C460.639 333.996 459.477 334.255 458.158 334.255C457.611 334.255 456.967 334.167 456.225 333.991C455.492 333.825 454.77 333.537 454.057 333.127C453.354 332.727 452.763 332.185 452.284 331.501L453.705 329.89C454.369 330.69 455.062 331.247 455.785 331.56C456.518 331.872 457.24 332.028 457.953 332.028C458.812 332.028 459.555 331.867 460.18 331.545C460.805 331.223 461.288 330.744 461.63 330.109C461.981 329.484 462.157 328.713 462.157 327.795V315.637L462.406 312.15ZM451.493 320.251V319.943C451.493 318.732 451.635 317.634 451.918 316.647C452.211 315.651 452.626 314.797 453.163 314.084C453.71 313.371 454.369 312.824 455.141 312.443C455.912 312.053 456.781 311.857 457.748 311.857C458.744 311.857 459.613 312.033 460.355 312.385C461.107 312.727 461.742 313.229 462.26 313.894C462.787 314.548 463.202 315.339 463.505 316.267C463.808 317.194 464.018 318.244 464.135 319.416V320.764C464.027 321.926 463.817 322.971 463.505 323.898C463.202 324.826 462.787 325.617 462.26 326.271C461.742 326.926 461.107 327.429 460.355 327.78C459.604 328.122 458.725 328.293 457.719 328.293C456.771 328.293 455.912 328.093 455.141 327.692C454.379 327.292 453.725 326.73 453.178 326.008C452.631 325.285 452.211 324.436 451.918 323.459C451.635 322.473 451.493 321.403 451.493 320.251ZM454.203 319.943V320.251C454.203 321.042 454.281 321.784 454.438 322.478C454.604 323.171 454.853 323.781 455.185 324.309C455.526 324.836 455.961 325.251 456.488 325.554C457.016 325.847 457.646 325.993 458.378 325.993C459.276 325.993 460.019 325.803 460.604 325.422C461.19 325.041 461.654 324.538 461.996 323.913C462.348 323.288 462.621 322.609 462.816 321.877V318.347C462.709 317.81 462.543 317.292 462.318 316.794C462.104 316.286 461.82 315.837 461.469 315.446C461.127 315.046 460.702 314.729 460.194 314.494C459.687 314.26 459.091 314.143 458.407 314.143C457.665 314.143 457.025 314.299 456.488 314.611C455.961 314.914 455.526 315.334 455.185 315.871C454.853 316.398 454.604 317.014 454.438 317.717C454.281 318.41 454.203 319.152 454.203 319.943ZM471.928 312.15V328H469.203V312.15H471.928ZM468.998 307.946C468.998 307.507 469.13 307.136 469.394 306.833C469.667 306.53 470.067 306.379 470.595 306.379C471.112 306.379 471.508 306.53 471.781 306.833C472.064 307.136 472.206 307.507 472.206 307.946C472.206 308.366 472.064 308.728 471.781 309.03C471.508 309.323 471.112 309.47 470.595 309.47C470.067 309.47 469.667 309.323 469.394 309.03C469.13 308.728 468.998 308.366 468.998 307.946ZM478.988 315.534V328H476.278V312.15H478.842L478.988 315.534ZM478.344 319.475L477.216 319.431C477.226 318.347 477.387 317.346 477.699 316.428C478.012 315.5 478.451 314.694 479.018 314.011C479.584 313.327 480.258 312.8 481.039 312.429C481.83 312.048 482.704 311.857 483.661 311.857C484.442 311.857 485.146 311.965 485.771 312.18C486.396 312.385 486.928 312.717 487.367 313.176C487.816 313.635 488.158 314.23 488.393 314.963C488.627 315.686 488.744 316.569 488.744 317.614V328H486.02V317.585C486.02 316.755 485.897 316.091 485.653 315.593C485.409 315.085 485.053 314.719 484.584 314.494C484.115 314.26 483.539 314.143 482.855 314.143C482.182 314.143 481.566 314.284 481.01 314.567C480.463 314.851 479.989 315.241 479.589 315.739C479.198 316.237 478.891 316.809 478.666 317.453C478.451 318.088 478.344 318.762 478.344 319.475ZM499.438 328.293C498.334 328.293 497.333 328.107 496.435 327.736C495.546 327.355 494.779 326.823 494.135 326.14C493.5 325.456 493.012 324.646 492.67 323.708C492.328 322.771 492.157 321.745 492.157 320.632V320.017C492.157 318.728 492.348 317.58 492.729 316.574C493.109 315.559 493.627 314.699 494.281 313.996C494.936 313.293 495.678 312.761 496.508 312.399C497.338 312.038 498.197 311.857 499.086 311.857C500.219 311.857 501.195 312.053 502.016 312.443C502.846 312.834 503.524 313.381 504.052 314.084C504.579 314.777 504.97 315.598 505.224 316.545C505.478 317.482 505.604 318.508 505.604 319.621V320.837H493.769V318.625H502.895V318.42C502.855 317.717 502.709 317.033 502.455 316.369C502.211 315.705 501.82 315.158 501.283 314.729C500.746 314.299 500.014 314.084 499.086 314.084C498.471 314.084 497.904 314.216 497.387 314.479C496.869 314.733 496.425 315.114 496.054 315.622C495.683 316.13 495.395 316.75 495.189 317.482C494.984 318.215 494.882 319.06 494.882 320.017V320.632C494.882 321.384 494.984 322.092 495.189 322.756C495.404 323.41 495.712 323.986 496.112 324.484C496.522 324.982 497.016 325.373 497.592 325.656C498.178 325.939 498.842 326.081 499.584 326.081C500.541 326.081 501.352 325.886 502.016 325.495C502.68 325.104 503.261 324.582 503.759 323.928L505.399 325.231C505.058 325.749 504.623 326.242 504.096 326.711C503.568 327.18 502.919 327.561 502.147 327.854C501.386 328.146 500.482 328.293 499.438 328.293ZM515.346 328.293C514.242 328.293 513.241 328.107 512.343 327.736C511.454 327.355 510.688 326.823 510.043 326.14C509.408 325.456 508.92 324.646 508.578 323.708C508.236 322.771 508.065 321.745 508.065 320.632V320.017C508.065 318.728 508.256 317.58 508.637 316.574C509.018 315.559 509.535 314.699 510.189 313.996C510.844 313.293 511.586 312.761 512.416 312.399C513.246 312.038 514.105 311.857 514.994 311.857C516.127 311.857 517.104 312.053 517.924 312.443C518.754 312.834 519.433 313.381 519.96 314.084C520.487 314.777 520.878 315.598 521.132 316.545C521.386 317.482 521.513 318.508 521.513 319.621V320.837H509.677V318.625H518.803V318.42C518.764 317.717 518.617 317.033 518.363 316.369C518.119 315.705 517.729 315.158 517.191 314.729C516.654 314.299 515.922 314.084 514.994 314.084C514.379 314.084 513.812 314.216 513.295 314.479C512.777 314.733 512.333 315.114 511.962 315.622C511.591 316.13 511.303 316.75 511.098 317.482C510.893 318.215 510.79 319.06 510.79 320.017V320.632C510.79 321.384 510.893 322.092 511.098 322.756C511.312 323.41 511.62 323.986 512.021 324.484C512.431 324.982 512.924 325.373 513.5 325.656C514.086 325.939 514.75 326.081 515.492 326.081C516.449 326.081 517.26 325.886 517.924 325.495C518.588 325.104 519.169 324.582 519.667 323.928L521.308 325.231C520.966 325.749 520.531 326.242 520.004 326.711C519.477 327.18 518.827 327.561 518.056 327.854C517.294 328.146 516.391 328.293 515.346 328.293ZM527.387 314.641V328H524.677V312.15H527.313L527.387 314.641ZM532.338 312.062L532.323 314.582C532.099 314.533 531.884 314.504 531.679 314.494C531.483 314.475 531.259 314.465 531.005 314.465C530.38 314.465 529.828 314.562 529.35 314.758C528.871 314.953 528.466 315.227 528.134 315.578C527.802 315.93 527.538 316.35 527.343 316.838C527.157 317.316 527.035 317.844 526.977 318.42L526.215 318.859C526.215 317.902 526.308 317.004 526.493 316.164C526.688 315.324 526.986 314.582 527.387 313.938C527.787 313.283 528.295 312.775 528.91 312.414C529.535 312.043 530.277 311.857 531.137 311.857C531.332 311.857 531.557 311.882 531.811 311.931C532.064 311.97 532.24 312.014 532.338 312.062ZM537.787 312.15V328H535.062V312.15H537.787ZM534.857 307.946C534.857 307.507 534.989 307.136 535.253 306.833C535.526 306.53 535.927 306.379 536.454 306.379C536.972 306.379 537.367 306.53 537.641 306.833C537.924 307.136 538.065 307.507 538.065 307.946C538.065 308.366 537.924 308.728 537.641 309.03C537.367 309.323 536.972 309.47 536.454 309.47C535.927 309.47 535.526 309.323 535.253 309.03C534.989 308.728 534.857 308.366 534.857 307.946ZM544.848 315.534V328H542.138V312.15H544.701L544.848 315.534ZM544.203 319.475L543.075 319.431C543.085 318.347 543.246 317.346 543.559 316.428C543.871 315.5 544.311 314.694 544.877 314.011C545.443 313.327 546.117 312.8 546.898 312.429C547.689 312.048 548.563 311.857 549.521 311.857C550.302 311.857 551.005 311.965 551.63 312.18C552.255 312.385 552.787 312.717 553.227 313.176C553.676 313.635 554.018 314.23 554.252 314.963C554.486 315.686 554.604 316.569 554.604 317.614V328H551.879V317.585C551.879 316.755 551.757 316.091 551.513 315.593C551.269 315.085 550.912 314.719 550.443 314.494C549.975 314.26 549.398 314.143 548.715 314.143C548.041 314.143 547.426 314.284 546.869 314.567C546.322 314.851 545.849 315.241 545.448 315.739C545.058 316.237 544.75 316.809 544.525 317.453C544.311 318.088 544.203 318.762 544.203 319.475ZM568.988 312.15H571.449V327.663C571.449 329.06 571.166 330.251 570.6 331.237C570.033 332.224 569.242 332.971 568.227 333.479C567.221 333.996 566.059 334.255 564.74 334.255C564.193 334.255 563.549 334.167 562.807 333.991C562.074 333.825 561.352 333.537 560.639 333.127C559.936 332.727 559.345 332.185 558.866 331.501L560.287 329.89C560.951 330.69 561.645 331.247 562.367 331.56C563.1 331.872 563.822 332.028 564.535 332.028C565.395 332.028 566.137 331.867 566.762 331.545C567.387 331.223 567.87 330.744 568.212 330.109C568.563 329.484 568.739 328.713 568.739 327.795V315.637L568.988 312.15ZM558.075 320.251V319.943C558.075 318.732 558.217 317.634 558.5 316.647C558.793 315.651 559.208 314.797 559.745 314.084C560.292 313.371 560.951 312.824 561.723 312.443C562.494 312.053 563.363 311.857 564.33 311.857C565.326 311.857 566.195 312.033 566.938 312.385C567.689 312.727 568.324 313.229 568.842 313.894C569.369 314.548 569.784 315.339 570.087 316.267C570.39 317.194 570.6 318.244 570.717 319.416V320.764C570.609 321.926 570.399 322.971 570.087 323.898C569.784 324.826 569.369 325.617 568.842 326.271C568.324 326.926 567.689 327.429 566.938 327.78C566.186 328.122 565.307 328.293 564.301 328.293C563.354 328.293 562.494 328.093 561.723 327.692C560.961 327.292 560.307 326.73 559.76 326.008C559.213 325.285 558.793 324.436 558.5 323.459C558.217 322.473 558.075 321.403 558.075 320.251ZM560.785 319.943V320.251C560.785 321.042 560.863 321.784 561.02 322.478C561.186 323.171 561.435 323.781 561.767 324.309C562.108 324.836 562.543 325.251 563.07 325.554C563.598 325.847 564.228 325.993 564.96 325.993C565.858 325.993 566.601 325.803 567.187 325.422C567.772 325.041 568.236 324.538 568.578 323.913C568.93 323.288 569.203 322.609 569.398 321.877V318.347C569.291 317.81 569.125 317.292 568.9 316.794C568.686 316.286 568.402 315.837 568.051 315.446C567.709 315.046 567.284 314.729 566.776 314.494C566.269 314.26 565.673 314.143 564.989 314.143C564.247 314.143 563.607 314.299 563.07 314.611C562.543 314.914 562.108 315.334 561.767 315.871C561.435 316.398 561.186 317.014 561.02 317.717C560.863 318.41 560.785 319.152 560.785 319.943ZM374.999 351.56V354.108H360.38V351.56H374.999ZM369.052 345.334V360.861H366.342V345.334H369.052ZM395.756 359.924V340.5H398.48V363H395.99L395.756 359.924ZM385.092 355.251V354.943C385.092 353.732 385.238 352.634 385.531 351.647C385.834 350.651 386.259 349.797 386.806 349.084C387.362 348.371 388.021 347.824 388.783 347.443C389.555 347.053 390.414 346.857 391.361 346.857C392.357 346.857 393.227 347.033 393.969 347.385C394.721 347.727 395.355 348.229 395.873 348.894C396.4 349.548 396.815 350.339 397.118 351.267C397.421 352.194 397.631 353.244 397.748 354.416V355.764C397.641 356.926 397.431 357.971 397.118 358.898C396.815 359.826 396.4 360.617 395.873 361.271C395.355 361.926 394.721 362.429 393.969 362.78C393.217 363.122 392.338 363.293 391.332 363.293C390.404 363.293 389.555 363.093 388.783 362.692C388.021 362.292 387.362 361.73 386.806 361.008C386.259 360.285 385.834 359.436 385.531 358.459C385.238 357.473 385.092 356.403 385.092 355.251ZM387.816 354.943V355.251C387.816 356.042 387.895 356.784 388.051 357.478C388.217 358.171 388.471 358.781 388.812 359.309C389.154 359.836 389.589 360.251 390.116 360.554C390.644 360.847 391.273 360.993 392.006 360.993C392.904 360.993 393.642 360.803 394.218 360.422C394.804 360.041 395.272 359.538 395.624 358.913C395.976 358.288 396.249 357.609 396.444 356.877V353.347C396.327 352.81 396.156 352.292 395.932 351.794C395.717 351.286 395.434 350.837 395.082 350.446C394.74 350.046 394.315 349.729 393.808 349.494C393.31 349.26 392.719 349.143 392.035 349.143C391.293 349.143 390.653 349.299 390.116 349.611C389.589 349.914 389.154 350.334 388.812 350.871C388.471 351.398 388.217 352.014 388.051 352.717C387.895 353.41 387.816 354.152 387.816 354.943ZM409.276 363.293C408.173 363.293 407.172 363.107 406.273 362.736C405.385 362.355 404.618 361.823 403.974 361.14C403.339 360.456 402.851 359.646 402.509 358.708C402.167 357.771 401.996 356.745 401.996 355.632V355.017C401.996 353.728 402.187 352.58 402.567 351.574C402.948 350.559 403.466 349.699 404.12 348.996C404.774 348.293 405.517 347.761 406.347 347.399C407.177 347.038 408.036 346.857 408.925 346.857C410.058 346.857 411.034 347.053 411.854 347.443C412.685 347.834 413.363 348.381 413.891 349.084C414.418 349.777 414.809 350.598 415.062 351.545C415.316 352.482 415.443 353.508 415.443 354.621V355.837H403.607V353.625H412.733V353.42C412.694 352.717 412.548 352.033 412.294 351.369C412.05 350.705 411.659 350.158 411.122 349.729C410.585 349.299 409.853 349.084 408.925 349.084C408.31 349.084 407.743 349.216 407.226 349.479C406.708 349.733 406.264 350.114 405.893 350.622C405.521 351.13 405.233 351.75 405.028 352.482C404.823 353.215 404.721 354.06 404.721 355.017V355.632C404.721 356.384 404.823 357.092 405.028 357.756C405.243 358.41 405.551 358.986 405.951 359.484C406.361 359.982 406.854 360.373 407.431 360.656C408.017 360.939 408.681 361.081 409.423 361.081C410.38 361.081 411.19 360.886 411.854 360.495C412.519 360.104 413.1 359.582 413.598 358.928L415.238 360.231C414.896 360.749 414.462 361.242 413.935 361.711C413.407 362.18 412.758 362.561 411.986 362.854C411.225 363.146 410.321 363.293 409.276 363.293ZM427.836 358.796C427.836 358.405 427.748 358.044 427.572 357.712C427.406 357.37 427.06 357.062 426.532 356.789C426.015 356.506 425.233 356.262 424.188 356.057C423.31 355.871 422.514 355.651 421.801 355.397C421.098 355.144 420.497 354.836 419.999 354.475C419.511 354.113 419.135 353.688 418.871 353.2C418.607 352.712 418.476 352.141 418.476 351.486C418.476 350.861 418.612 350.271 418.886 349.714C419.169 349.157 419.564 348.664 420.072 348.234C420.59 347.805 421.21 347.468 421.933 347.224C422.655 346.979 423.461 346.857 424.35 346.857C425.619 346.857 426.703 347.082 427.602 347.531C428.5 347.98 429.188 348.581 429.667 349.333C430.146 350.075 430.385 350.9 430.385 351.809H427.675C427.675 351.369 427.543 350.944 427.279 350.534C427.025 350.114 426.649 349.768 426.151 349.494C425.663 349.221 425.062 349.084 424.35 349.084C423.598 349.084 422.987 349.201 422.519 349.436C422.06 349.66 421.723 349.948 421.508 350.3C421.303 350.651 421.2 351.022 421.2 351.413C421.2 351.706 421.249 351.97 421.347 352.204C421.454 352.429 421.64 352.639 421.903 352.834C422.167 353.02 422.538 353.195 423.017 353.361C423.495 353.527 424.105 353.693 424.848 353.859C426.146 354.152 427.216 354.504 428.056 354.914C428.896 355.324 429.521 355.827 429.931 356.423C430.341 357.019 430.546 357.741 430.546 358.591C430.546 359.284 430.399 359.919 430.106 360.495C429.823 361.071 429.408 361.569 428.861 361.989C428.324 362.399 427.68 362.722 426.928 362.956C426.186 363.181 425.351 363.293 424.423 363.293C423.026 363.293 421.845 363.044 420.878 362.546C419.911 362.048 419.179 361.403 418.681 360.612C418.183 359.821 417.934 358.986 417.934 358.107H420.658C420.697 358.85 420.912 359.44 421.303 359.88C421.693 360.31 422.172 360.617 422.738 360.803C423.305 360.979 423.866 361.066 424.423 361.066C425.165 361.066 425.785 360.969 426.283 360.773C426.791 360.578 427.177 360.31 427.44 359.968C427.704 359.626 427.836 359.235 427.836 358.796ZM437.05 347.15V363H434.325V347.15H437.05ZM434.12 342.946C434.12 342.507 434.252 342.136 434.516 341.833C434.789 341.53 435.189 341.379 435.717 341.379C436.234 341.379 436.63 341.53 436.903 341.833C437.187 342.136 437.328 342.507 437.328 342.946C437.328 343.366 437.187 343.728 436.903 344.03C436.63 344.323 436.234 344.47 435.717 344.47C435.189 344.47 434.789 344.323 434.516 344.03C434.252 343.728 434.12 343.366 434.12 342.946ZM451.669 347.15H454.13V362.663C454.13 364.06 453.847 365.251 453.28 366.237C452.714 367.224 451.923 367.971 450.907 368.479C449.901 368.996 448.739 369.255 447.421 369.255C446.874 369.255 446.229 369.167 445.487 368.991C444.755 368.825 444.032 368.537 443.319 368.127C442.616 367.727 442.025 367.185 441.547 366.501L442.968 364.89C443.632 365.69 444.325 366.247 445.048 366.56C445.78 366.872 446.503 367.028 447.216 367.028C448.075 367.028 448.817 366.867 449.442 366.545C450.067 366.223 450.551 365.744 450.893 365.109C451.244 364.484 451.42 363.713 451.42 362.795V350.637L451.669 347.15ZM440.756 355.251V354.943C440.756 353.732 440.897 352.634 441.181 351.647C441.474 350.651 441.889 349.797 442.426 349.084C442.973 348.371 443.632 347.824 444.403 347.443C445.175 347.053 446.044 346.857 447.011 346.857C448.007 346.857 448.876 347.033 449.618 347.385C450.37 347.727 451.005 348.229 451.522 348.894C452.05 349.548 452.465 350.339 452.768 351.267C453.07 352.194 453.28 353.244 453.397 354.416V355.764C453.29 356.926 453.08 357.971 452.768 358.898C452.465 359.826 452.05 360.617 451.522 361.271C451.005 361.926 450.37 362.429 449.618 362.78C448.866 363.122 447.987 363.293 446.981 363.293C446.034 363.293 445.175 363.093 444.403 362.692C443.642 362.292 442.987 361.73 442.44 361.008C441.894 360.285 441.474 359.436 441.181 358.459C440.897 357.473 440.756 356.403 440.756 355.251ZM443.466 354.943V355.251C443.466 356.042 443.544 356.784 443.7 357.478C443.866 358.171 444.115 358.781 444.447 359.309C444.789 359.836 445.224 360.251 445.751 360.554C446.278 360.847 446.908 360.993 447.641 360.993C448.539 360.993 449.281 360.803 449.867 360.422C450.453 360.041 450.917 359.538 451.259 358.913C451.61 358.288 451.884 357.609 452.079 356.877V353.347C451.972 352.81 451.806 352.292 451.581 351.794C451.366 351.286 451.083 350.837 450.731 350.446C450.39 350.046 449.965 349.729 449.457 349.494C448.949 349.26 448.354 349.143 447.67 349.143C446.928 349.143 446.288 349.299 445.751 349.611C445.224 349.914 444.789 350.334 444.447 350.871C444.115 351.398 443.866 352.014 443.7 352.717C443.544 353.41 443.466 354.152 443.466 354.943ZM460.956 350.534V363H458.246V347.15H460.81L460.956 350.534ZM460.312 354.475L459.184 354.431C459.193 353.347 459.354 352.346 459.667 351.428C459.979 350.5 460.419 349.694 460.985 349.011C461.552 348.327 462.226 347.8 463.007 347.429C463.798 347.048 464.672 346.857 465.629 346.857C466.41 346.857 467.113 346.965 467.738 347.18C468.363 347.385 468.896 347.717 469.335 348.176C469.784 348.635 470.126 349.23 470.36 349.963C470.595 350.686 470.712 351.569 470.712 352.614V363H467.987V352.585C467.987 351.755 467.865 351.091 467.621 350.593C467.377 350.085 467.021 349.719 466.552 349.494C466.083 349.26 465.507 349.143 464.823 349.143C464.149 349.143 463.534 349.284 462.978 349.567C462.431 349.851 461.957 350.241 461.557 350.739C461.166 351.237 460.858 351.809 460.634 352.453C460.419 353.088 460.312 353.762 460.312 354.475Z" fill="black"/>
<path d="M136.756 670.065C140.936 665.4 143.396 659.509 143.396 652.633C143.396 638.15 131.592 626.364 117.08 626.364C102.57 626.364 90.7641 638.148 90.7641 652.633C90.7641 659.262 93.4695 665.4 97.4048 670.065C89.2889 673.993 83.1405 681.848 82.1572 691.422L79.9441 709.098C79.2064 714.499 82.6495 719.409 88.06 720.392C89.7824 720.883 91.7484 721.128 93.4706 721.373L95.6837 757.706C95.929 764.089 101.34 769 107.735 769H126.426C132.82 769 137.985 764.091 138.477 757.706L140.69 721.373C142.658 721.128 144.379 720.637 146.101 720.392C151.266 719.164 154.709 714.5 154.217 709.098L152.004 691.422C150.772 681.85 144.871 673.993 136.754 670.065H136.756ZM117.08 638.151C124.951 638.151 131.59 644.534 131.59 652.635C131.59 660.492 125.196 667.119 117.08 667.119C109.209 667.119 102.57 660.737 102.57 652.635C102.57 644.778 109.209 638.151 117.08 638.151V638.151ZM134.295 710.327C131.59 710.819 129.377 713.028 129.13 715.728L126.424 756.971L107.487 756.726L105.027 715.728C104.781 713.028 102.814 710.572 99.8612 710.327C97.1558 710.082 94.4506 709.591 91.7453 709.099L93.713 692.896C94.696 685.039 101.337 679.149 109.453 679.149H124.701C132.571 679.149 139.458 685.041 140.441 692.896L142.408 709.099C139.706 709.591 137.001 710.082 134.295 710.327L134.295 710.327Z" fill="black"/>
<path d="M233.534 647.386L119.986 569.552C118.754 568.816 117.277 568.816 116.045 569.552L2.49763 647.386C1.02006 648.367 0.526958 650.578 1.51315 652.296L6.19342 658.926C6.68652 659.662 7.4253 660.154 8.40978 660.399C9.39426 660.644 10.1348 660.399 11.1192 659.907L28.6079 647.876V764.012C28.6079 765.977 30.0855 767.45 32.0561 767.45H40.1842C42.1549 767.45 43.6324 765.977 43.6324 764.012L43.6307 640.755C43.6307 638.791 44.6152 636.826 46.3402 635.845L114.567 588.949C115.552 587.967 116.783 587.721 118.015 587.721C119.247 587.721 120.479 587.966 121.463 588.702L189.69 635.599C191.415 636.827 192.4 638.544 192.4 640.509V764.011C192.4 765.976 193.877 767.449 195.848 767.449H203.976C205.947 767.449 207.424 765.976 207.424 764.011V647.875L224.913 659.906C225.652 660.398 226.638 660.643 227.622 660.398C228.607 660.153 229.347 659.661 229.839 658.925L234.519 652.295C235.012 651.559 235.258 650.575 235.012 649.594C234.765 648.858 234.272 648.121 233.533 647.385L233.534 647.386Z" fill="black"/>
<path d="M503.83 618.002C503.276 618.002 502.714 617.889 502.176 617.656L406.343 575.989C404.235 575.073 403.268 572.615 404.185 570.507C405.097 568.395 407.555 567.428 409.667 568.348L505.493 610.015C507.605 610.928 508.576 613.381 507.66 615.494C506.973 617.064 505.44 618.002 503.832 618.002L503.83 618.002Z" fill="black"/>
<path d="M312.171 663.833C310.558 663.833 309.029 662.891 308.345 661.32C307.429 659.208 308.4 656.754 310.512 655.842L406.338 614.175C408.446 613.255 410.899 614.221 411.82 616.333C412.737 618.441 411.77 620.899 409.662 621.816L313.829 663.483C313.288 663.726 312.726 663.833 312.172 663.833L312.171 663.833Z" fill="black"/>
<path d="M491.331 767.998H408.001C405.7 767.998 403.834 766.131 403.834 763.831V572.172C403.834 570.767 404.542 569.46 405.717 568.688C406.896 567.917 408.375 567.793 409.662 568.351L492.992 604.6C494.514 605.262 495.498 606.762 495.498 608.421V763.831C495.498 766.131 493.631 767.998 491.331 767.998V767.998ZM412.169 759.665H487.166V611.148L412.169 578.523V759.665Z" fill="black"/>
<path d="M408.001 767.998H324.671C322.371 767.998 320.504 766.131 320.504 763.831V654.252C320.504 652.593 321.487 651.093 323.008 650.431L406.338 614.182C407.626 613.62 409.108 613.748 410.283 614.519C411.459 615.291 412.168 616.598 412.168 618.003V763.831C412.168 766.131 410.301 767.998 408.001 767.998V767.998ZM328.835 759.665H403.833V624.355L328.835 656.98V759.665Z" fill="black"/>
<path d="M466.331 767.998H432.999C430.699 767.998 428.832 766.131 428.832 763.831V722.168C428.832 719.867 430.699 718.001 432.999 718.001H466.331C468.632 718.001 470.498 719.867 470.498 722.168V763.834C470.498 766.133 468.632 768 466.331 768V767.998ZM437.166 759.665H462.166V726.333H437.166V759.665Z" fill="black"/>
<path d="M383.001 767.998H349.67C347.369 767.998 345.503 766.131 345.503 763.831V722.168C345.503 719.867 347.369 718.001 349.67 718.001H383.001C385.302 718.001 387.169 719.867 387.169 722.168V763.834C387.169 766.133 385.302 768 383.001 768V767.998ZM353.835 759.665H378.834V726.333H353.835V759.665Z" fill="black"/>
<path d="M441.332 709.667H424.665C422.365 709.667 420.498 707.801 420.498 705.5V688.834C420.498 686.533 422.365 684.667 424.665 684.667H441.332C443.632 684.667 445.499 686.533 445.499 688.834V705.5C445.499 707.801 443.632 709.667 441.332 709.667ZM428.832 701.333H437.165V693.001H428.832V701.333Z" fill="black"/>
<path d="M474.667 709.667H458C455.7 709.667 453.833 707.801 453.833 705.5V688.834C453.833 686.533 455.7 684.667 458 684.667H474.667C476.967 684.667 478.834 686.533 478.834 688.834V705.5C478.832 707.801 476.966 709.667 474.667 709.667ZM462.167 701.333H470.5V693.001H462.167V701.333Z" fill="black"/>
<path d="M358.002 709.667H341.336C339.035 709.667 337.168 707.801 337.168 705.5V688.834C337.168 686.533 339.035 684.667 341.336 684.667H358.002C360.303 684.667 362.169 686.533 362.169 688.834V705.5C362.169 707.801 360.303 709.667 358.002 709.667ZM345.503 701.333H353.835V693.001H345.503V701.333Z" fill="black"/>
<path d="M391.333 709.667H374.667C372.366 709.667 370.5 707.801 370.5 705.5V688.834C370.5 686.533 372.366 684.667 374.667 684.667H391.333C393.634 684.667 395.5 686.533 395.5 688.834V705.5C395.5 707.801 393.634 709.667 391.333 709.667ZM378.834 701.333H387.166V693.001H378.834V701.333Z" fill="black"/>
<path d="M441.332 676.333H424.665C422.365 676.333 420.498 674.466 420.498 672.166V655.499C420.498 653.198 422.365 651.332 424.665 651.332H441.332C443.632 651.332 445.499 653.198 445.499 655.499V672.166C445.499 674.466 443.632 676.333 441.332 676.333ZM428.832 668H437.165V659.667H428.832V668Z" fill="black"/>
<path d="M474.667 676.333H458C455.7 676.333 453.833 674.466 453.833 672.166V655.499C453.833 653.198 455.7 651.332 458 651.332H474.667C476.967 651.332 478.834 653.198 478.834 655.499V672.166C478.832 674.466 476.966 676.333 474.667 676.333ZM462.167 668H470.5V659.667H462.167V668Z" fill="black"/>
<path d="M441.332 643.001H424.665C422.365 643.001 420.498 641.135 420.498 638.834V622.168C420.498 619.867 422.365 618.001 424.665 618.001H441.332C443.632 618.001 445.499 619.867 445.499 622.168V638.834C445.499 641.135 443.632 643.001 441.332 643.001ZM428.832 634.669H437.165V626.336H428.832V634.669Z" fill="black"/>
<path d="M474.667 643.001H458C455.7 643.001 453.833 641.135 453.833 638.834V622.168C453.833 619.867 455.7 618.001 458 618.001H474.667C476.967 618.001 478.834 619.867 478.834 622.168V638.834C478.832 641.135 476.966 643.001 474.667 643.001ZM462.167 634.669H470.5V626.336H462.167V634.669Z" fill="black"/>
<path d="M828.922 762.986H819.41L819.408 570.506C819.408 569.667 818.99 568.884 818.291 568.419C817.597 567.956 816.713 567.872 815.935 568.194L756.112 593.247C755.182 593.638 754.576 594.549 754.576 595.559V620.549H721.817C720.432 620.549 719.311 621.669 719.311 623.055V705.516H708.767L708.768 600.418C708.768 599.032 707.648 597.912 706.262 597.912H701.505V570.506C701.505 569.12 700.385 568 698.999 568H653.702C652.316 568 651.196 569.12 651.196 570.506V597.912H646.441C645.055 597.912 643.935 599.032 643.935 600.418V700.447C639.395 701.578 636.011 705.655 636.011 710.539C636.011 713.851 637.593 716.773 640.005 718.685C635.844 720.974 632.985 725.352 632.985 730.43C632.985 736.993 637.712 742.454 643.935 743.633V762.988H633.506C632.12 762.988 631 764.108 631 765.494C631 766.88 632.12 768 633.506 768H828.921C830.307 768 831.427 766.88 831.427 765.494C831.427 764.105 830.303 762.986 828.919 762.986L828.922 762.986ZM759.587 597.223L814.4 574.268V762.982L776.556 762.984V623.052C776.556 621.667 775.436 620.546 774.05 620.546H759.589L759.587 597.223ZM771.544 625.558V762.984H761.541V747.268C761.541 739.767 755.435 733.662 747.935 733.662C740.434 733.662 734.332 739.767 734.332 747.268V762.984H724.325V625.558H771.544ZM756.527 762.984H739.342V747.268C739.342 742.529 743.195 738.672 747.935 738.672C752.674 738.672 756.531 742.527 756.531 747.268V762.984H756.527ZM719.314 762.984H706.846V747.268C706.846 739.767 700.74 733.662 693.239 733.662C685.738 733.662 679.636 739.767 679.636 747.268V762.984H668.733L668.731 710.524H719.307V762.984H719.314ZM701.834 762.984H684.648V747.268C684.648 742.529 688.501 738.672 693.241 738.672C697.98 738.672 701.837 742.527 701.837 747.268V762.984H701.834ZM656.21 573.009H696.495V597.91H656.21V573.009ZM646.441 705.12C649.427 705.12 651.86 707.553 651.86 710.539C651.86 713.526 649.427 715.958 646.441 715.958C643.454 715.958 641.022 713.526 641.022 710.539C641.024 707.553 643.456 705.12 646.441 705.12ZM637.997 730.428C637.997 725.773 641.787 721.982 646.443 721.982C651.098 721.982 654.889 725.773 654.889 730.428C654.889 735.084 651.098 738.874 646.443 738.874C641.787 738.874 637.997 735.084 637.997 730.428ZM648.947 743.631C655.17 742.452 659.898 736.99 659.898 730.428C659.898 725.35 657.039 720.976 652.878 718.683C655.293 716.771 656.871 713.851 656.871 710.537C656.871 705.655 653.486 701.576 648.947 700.445V602.921H703.76V705.509L666.233 705.511C664.847 705.511 663.727 706.631 663.727 708.017V762.982H648.951L648.953 743.629L648.947 743.631Z" fill="black"/>
<path d="M663.41 630.087C664.795 630.087 665.916 628.967 665.916 627.581V615.729C665.916 614.344 664.795 613.223 663.41 613.223C662.024 613.223 660.904 614.344 660.904 615.729V627.581C660.905 628.967 662.024 630.087 663.41 630.087Z" fill="black"/>
<path d="M676.357 630.087C677.743 630.087 678.863 628.967 678.863 627.581V615.729C678.863 614.344 677.743 613.223 676.357 613.223C674.971 613.223 673.851 614.344 673.851 615.729V627.581C673.851 628.967 674.971 630.087 676.357 630.087Z" fill="black"/>
<path d="M689.299 630.087C690.685 630.087 691.805 628.967 691.805 627.581V615.729C691.805 614.344 690.685 613.223 689.299 613.223C687.914 613.223 686.793 614.344 686.793 615.729V627.581C686.793 628.967 687.914 630.087 689.299 630.087Z" fill="black"/>
<path d="M663.41 653.512C664.795 653.512 665.916 652.392 665.916 651.006V639.156C665.916 637.77 664.795 636.65 663.41 636.65C662.024 636.65 660.904 637.77 660.904 639.156V651.006C660.905 652.39 662.024 653.512 663.41 653.512Z" fill="black"/>
<path d="M676.357 653.512C677.743 653.512 678.863 652.392 678.863 651.006V639.156C678.863 637.77 677.743 636.65 676.357 636.65C674.971 636.65 673.851 637.77 673.851 639.156V651.006C673.851 652.39 674.971 653.512 676.357 653.512Z" fill="black"/>
<path d="M689.299 653.512C690.685 653.512 691.805 652.392 691.805 651.006V639.156C691.805 637.77 690.685 636.65 689.299 636.65C687.914 636.65 686.793 637.77 686.793 639.156V651.006C686.793 652.39 687.914 653.512 689.299 653.512Z" fill="black"/>
<path d="M786.993 630.087C788.379 630.087 789.499 628.967 789.499 627.581V615.729C789.499 614.344 788.379 613.223 786.993 613.223C785.608 613.223 784.487 614.344 784.487 615.729V627.581C784.489 628.967 785.609 630.087 786.993 630.087Z" fill="black"/>
<path d="M799.936 630.087C801.322 630.087 802.442 628.967 802.442 627.581V615.729C802.442 614.344 801.322 613.223 799.936 613.223C798.55 613.223 797.43 614.344 797.43 615.729V627.581C797.432 628.967 798.552 630.087 799.936 630.087Z" fill="black"/>
<path d="M786.993 653.512C788.379 653.512 789.499 652.392 789.499 651.006V639.156C789.499 637.77 788.379 636.65 786.993 636.65C785.608 636.65 784.487 637.77 784.487 639.156V651.006C784.489 652.39 785.609 653.512 786.993 653.512Z" fill="black"/>
<path d="M799.936 653.512C801.322 653.512 802.442 652.392 802.442 651.006V639.156C802.442 637.77 801.322 636.65 799.936 636.65C798.55 636.65 797.43 637.77 797.43 639.156V651.006C797.432 652.39 798.552 653.512 799.936 653.512Z" fill="black"/>
<path d="M786.993 676.941C788.379 676.941 789.499 675.821 789.499 674.435V662.583C789.499 661.198 788.379 660.077 786.993 660.077C785.608 660.077 784.487 661.198 784.487 662.583V674.435C784.489 675.821 785.609 676.941 786.993 676.941Z" fill="black"/>
<path d="M799.936 676.941C801.322 676.941 802.442 675.821 802.442 674.435V662.583C802.442 661.198 801.322 660.077 799.936 660.077C798.55 660.077 797.43 661.198 797.43 662.583V674.435C797.432 675.821 798.552 676.941 799.936 676.941Z" fill="black"/>
<path d="M786.993 700.371C788.379 700.371 789.499 699.251 789.499 697.865V686.011C789.499 684.625 788.379 683.505 786.993 683.505C785.608 683.505 784.487 684.625 784.487 686.011V697.863C784.489 699.25 785.609 700.371 786.993 700.371V700.371Z" fill="black"/>
<path d="M799.936 700.371C801.322 700.371 802.442 699.251 802.442 697.865V686.011C802.442 684.625 801.322 683.505 799.936 683.505C798.55 683.505 797.43 684.625 797.43 686.011V697.863C797.432 699.25 798.552 700.371 799.936 700.371V700.371Z" fill="black"/>
<path d="M786.993 723.795C788.379 723.795 789.499 722.675 789.499 721.289V709.437C789.499 708.052 788.379 706.931 786.993 706.931C785.608 706.931 784.487 708.052 784.487 709.437V721.289C784.489 722.675 785.609 723.795 786.993 723.795Z" fill="black"/>
<path d="M736.838 723.795H759.035C760.421 723.795 761.541 722.675 761.541 721.289C761.541 719.904 760.421 718.783 759.035 718.783H736.838C735.452 718.783 734.332 719.904 734.332 721.289C734.334 722.675 735.452 723.795 736.838 723.795Z" fill="black"/>
<path d="M736.838 710.11H759.035C760.421 710.11 761.541 708.99 761.541 707.604C761.541 706.218 760.421 705.098 759.035 705.098H736.838C735.452 705.098 734.332 706.218 734.332 707.604C734.334 708.992 735.452 710.11 736.838 710.11Z" fill="black"/>
<path d="M736.838 696.42H759.035C760.421 696.42 761.541 695.3 761.541 693.914C761.541 692.528 760.421 691.408 759.035 691.408H736.838C735.452 691.408 734.332 692.528 734.332 693.914C734.334 695.3 735.452 696.42 736.838 696.42Z" fill="black"/>
<path d="M736.838 682.731H759.035C760.421 682.731 761.541 681.61 761.541 680.225C761.541 678.839 760.421 677.719 759.035 677.719H736.838C735.452 677.719 734.332 678.839 734.332 680.225C734.334 681.61 735.452 682.731 736.838 682.731Z" fill="black"/>
<path d="M736.838 669.041H759.035C760.421 669.041 761.541 667.921 761.541 666.535C761.541 665.149 760.421 664.029 759.035 664.029H736.838C735.452 664.029 734.332 665.149 734.332 666.535C734.334 667.922 735.452 669.041 736.838 669.041Z" fill="black"/>
<path d="M736.838 655.351H759.035C760.421 655.351 761.541 654.231 761.541 652.845C761.541 651.459 760.421 650.339 759.035 650.339H736.838C735.452 650.339 734.332 651.459 734.332 652.845C734.334 654.231 735.452 655.351 736.838 655.351Z" fill="black"/>
<path d="M736.838 641.661H759.035C760.421 641.661 761.541 640.541 761.541 639.155C761.541 637.769 760.421 636.649 759.035 636.649H736.838C735.452 636.649 734.332 637.769 734.332 639.155C734.334 640.541 735.452 641.661 736.838 641.661Z" fill="black"/>
<path d="M799.936 723.795C801.322 723.795 802.442 722.675 802.442 721.289V709.437C802.442 708.052 801.322 706.931 799.936 706.931C798.55 706.931 797.43 708.052 797.43 709.437V721.289C797.432 722.675 798.552 723.795 799.936 723.795Z" fill="black"/>
<path d="M786.993 747.225C788.379 747.225 789.499 746.104 789.499 744.719V732.867C789.499 731.481 788.379 730.361 786.993 730.361C785.608 730.361 784.487 731.481 784.487 732.867V744.719C784.489 746.104 785.609 747.225 786.993 747.225Z" fill="black"/>
<path d="M799.936 747.225C801.322 747.225 802.442 746.104 802.442 744.719V732.867C802.442 731.481 801.322 730.361 799.936 730.361C798.55 730.361 797.43 731.481 797.43 732.867V744.719C797.432 746.104 798.552 747.225 799.936 747.225Z" fill="black"/>
<path d="M663.41 676.941C664.795 676.941 665.916 675.821 665.916 674.435V662.583C665.916 661.198 664.795 660.077 663.41 660.077C662.024 660.077 660.904 661.198 660.904 662.583V674.435C660.905 675.821 662.024 676.941 663.41 676.941Z" fill="black"/>
<path d="M676.357 676.941C677.743 676.941 678.863 675.821 678.863 674.435V662.583C678.863 661.198 677.743 660.077 676.357 660.077C674.971 660.077 673.851 661.198 673.851 662.583V674.435C673.851 675.821 674.971 676.941 676.357 676.941Z" fill="black"/>
<path d="M689.299 676.941C690.685 676.941 691.805 675.821 691.805 674.435V662.583C691.805 661.198 690.685 660.077 689.299 660.077C687.914 660.077 686.793 661.198 686.793 662.583V674.435C686.793 675.821 687.914 676.941 689.299 676.941Z" fill="black"/>
<path d="M665.915 696.859V685.007C665.915 683.621 664.795 682.501 663.409 682.501C662.023 682.501 660.903 683.621 660.903 685.007V696.859C660.903 698.245 662.023 699.365 663.409 699.365C664.795 699.363 665.915 698.241 665.915 696.859Z" fill="black"/>
<path d="M676.357 699.364C677.743 699.364 678.863 698.244 678.863 696.858V685.006C678.863 683.62 677.743 682.5 676.357 682.5C674.971 682.5 673.851 683.62 673.851 685.006V696.858C673.851 698.242 674.971 699.364 676.357 699.364Z" fill="black"/>
<path d="M689.299 699.364C690.685 699.364 691.805 698.244 691.805 696.858V685.006C691.805 683.62 690.685 682.5 689.299 682.5C687.914 682.5 686.793 683.62 686.793 685.006V696.858C686.793 698.242 687.914 699.364 689.299 699.364Z" fill="black"/>
<path d="M414.902 261L429.308 236.539L399.762 236.671L414.902 261ZM285.024 112.486C340.123 112.486 371.069 129.56 388.659 153.516C406.395 177.67 410.928 209.293 412.014 239.104L417.129 238.981C416.037 209.02 411.494 176.145 392.843 150.744C374.047 125.145 341.296 107.607 284.975 107.607L285.024 112.486Z" fill="url(#paint0_linear_0_1)"/>
<path d="M415.098 261L400.691 236.539L430.238 236.671L415.098 261ZM544.975 112.486C489.877 112.486 458.93 129.56 441.34 153.516C423.605 177.67 419.072 209.293 417.985 239.104L412.87 238.981C413.962 209.02 418.505 176.145 437.157 150.744C455.953 125.145 488.703 107.607 545.025 107.607L544.975 112.486Z" fill="url(#paint1_linear_0_1)"/>
<path d="M144.751 208.913C136.964 208.913 129.495 205.819 123.988 200.312C118.482 194.806 115.388 187.338 115.388 179.55V178.743C115.656 168.496 121.251 159.131 130.148 154.039C139.045 148.947 149.954 148.868 158.925 153.829C167.896 158.789 173.628 168.072 174.045 178.314V179.549V179.55C174.045 187.334 170.953 194.8 165.45 200.307C159.948 205.812 152.483 208.908 144.699 208.913L144.751 208.913ZM144.751 153.637V153.635C137.999 153.672 131.524 156.328 126.69 161.044C121.858 165.757 119.043 172.165 118.837 178.914V179.548V179.55C119.072 188.651 124.064 196.964 131.988 201.449C139.912 205.934 149.608 205.934 157.532 201.449C165.456 196.964 170.446 188.651 170.681 179.55V178.554C170.436 171.848 167.595 165.499 162.757 160.85C157.918 156.2 151.461 153.613 144.751 153.635V153.637Z" fill="#000B72"/>
<path d="M143.996 116.998C136.425 117.005 129.144 114.083 123.677 108.843C118.211 103.604 114.983 96.4539 114.668 88.8892V87.654V87.6527C114.918 77.3346 120.567 67.9051 129.546 62.8171C138.526 57.7276 149.519 57.7276 158.498 62.8171C167.478 67.9051 173.127 77.3343 173.376 87.6527V88.477C173.167 96.1236 169.976 103.386 164.488 108.713C159 114.042 151.647 117.015 143.996 116.998L143.996 116.998ZM143.996 61.7384C137.125 61.7476 130.537 64.4799 125.677 69.3375C120.817 74.1936 118.079 80.7801 118.066 87.651V88.6636C118.355 97.7651 123.399 106.046 131.352 110.479C139.306 114.91 149.002 114.842 156.894 110.301C164.785 105.758 169.713 97.407 169.876 88.3042V87.6524V87.6511C169.862 80.7895 167.132 74.2108 162.282 69.3547C157.434 64.4999 150.859 61.761 143.996 61.7384L143.996 61.7384Z" fill="#000B72"/>
<path d="M111.322 154.358C111.478 154.987 111.265 155.651 110.773 156.074C105.411 160.818 98.4978 163.437 91.3372 163.437C84.1781 163.437 77.265 160.818 71.9032 156.074C71.4107 155.651 71.1974 154.987 71.3541 154.358C72.8091 147.428 77.7416 141.743 84.3965 139.324C81.5589 137.337 79.7062 134.234 79.3047 130.794C78.9018 127.355 79.9895 123.906 82.2912 121.32C84.5942 118.733 87.8913 117.253 91.3546 117.253C94.8176 117.253 98.1163 118.733 100.419 121.32C102.721 123.906 103.809 127.355 103.406 130.794C103.004 134.234 101.151 137.337 98.314 139.324C101.124 140.337 103.673 141.96 105.779 144.078C108.589 146.892 110.515 150.464 111.322 154.358H111.322Z" fill="#000B72"/>
<path d="M143.979 116.998C136.809 116.99 129.891 114.353 124.536 109.585C124.043 109.163 123.831 108.498 123.987 107.869C125.442 100.94 130.374 95.2542 137.029 92.8353C134.193 90.8496 132.339 87.7445 131.937 84.3051C131.536 80.8658 132.622 77.4183 134.925 74.8311C137.227 72.2437 140.525 70.7638 143.989 70.7638C147.451 70.7638 150.75 72.2438 153.052 74.8311C155.354 77.4186 156.441 80.8658 156.04 84.3051C155.637 87.7445 153.784 90.8494 150.948 92.8353C157.604 95.2502 162.53 100.949 163.955 107.886C164.112 108.515 163.9 109.18 163.406 109.602C158.059 114.368 151.144 117.002 143.98 116.998L143.979 116.998Z" fill="#000B72"/>
<path d="M216.812 155.214C211.45 159.96 204.537 162.579 197.377 162.579C190.217 162.579 183.304 159.96 177.942 155.214C177.45 154.793 177.236 154.128 177.393 153.498C178.848 146.57 183.781 140.884 190.435 138.465C187.589 136.48 185.727 133.372 185.32 129.926C184.912 126.478 185.998 123.022 188.304 120.428C190.609 117.834 193.914 116.35 197.385 116.35C200.856 116.35 204.161 117.833 206.467 120.428C208.772 123.022 209.859 126.478 209.452 129.926C209.044 133.372 207.182 136.48 204.335 138.465C210.991 140.886 215.92 146.58 217.36 153.515C217.509 154.14 217.299 154.795 216.811 155.214L216.812 155.214Z" fill="#000B72"/>
<path d="M164.727 199.919C164.883 200.55 164.671 201.214 164.178 201.637C158.816 206.381 151.903 209 144.743 209C137.584 209 130.671 206.381 125.309 201.637C124.815 201.214 124.603 200.55 124.76 199.919C126.208 192.993 131.134 187.307 137.784 184.887C134.941 182.9 133.082 179.791 132.676 176.345C132.271 172.9 133.358 169.445 135.664 166.853C137.97 164.26 141.274 162.777 144.743 162.777C148.213 162.777 151.517 164.26 153.823 166.853C156.128 169.445 157.216 172.9 156.81 176.345C156.406 179.791 154.547 182.9 151.703 184.887C158.359 187.307 163.288 193.002 164.728 199.937L164.727 199.919Z" fill="#000B72"/>
<path d="M91.3625 163.352C83.5726 163.352 76.1013 160.256 70.5945 154.745C65.0864 149.234 61.9946 141.762 62 133.972V133.165C62.262 124.191 66.6205 115.831 73.8272 110.477C81.0353 105.123 90.2973 103.365 98.9643 105.708C105.003 107.301 110.371 110.789 114.28 115.661C118.187 120.533 120.429 126.529 120.674 132.77V133.971V133.972C120.661 142.362 117.063 150.349 110.789 155.921C105.436 160.675 98.522 163.295 91.3628 163.283L91.3625 163.352ZM91.3625 108.058V108.057C84.6075 108.09 78.1289 110.743 73.2913 115.458C68.4547 120.174 65.6369 126.584 65.4316 133.335V133.97V133.971C65.4356 142.109 69.2529 149.773 75.746 154.678C82.2391 159.584 90.6556 161.161 98.4839 158.94C102.192 157.848 105.618 155.962 108.524 153.414C114.09 148.484 117.277 141.405 117.275 133.971V132.993C117.027 127.466 115.029 122.162 111.571 117.844C108.115 113.526 103.376 110.418 98.0386 108.967C95.8633 108.37 93.6183 108.063 91.3625 108.057V108.058Z" fill="#000B72"/>
<path d="M197.402 162.576C189.83 162.583 182.549 159.661 177.083 154.422C171.617 149.182 168.388 142.032 168.073 134.467V133.232V133.231C168.093 126.863 170.175 120.672 174.008 115.585C177.841 110.498 183.219 106.791 189.336 105.018C191.958 104.263 194.673 103.881 197.402 103.885C205.183 103.895 212.641 106.989 218.142 112.49C223.643 117.992 226.738 125.451 226.747 133.231V134.055C226.536 141.695 223.353 148.951 217.871 154.279C212.39 159.607 205.045 162.584 197.401 162.576L197.402 162.576ZM197.402 107.317C190.528 107.317 183.935 110.046 179.072 114.905C174.209 119.764 171.476 126.356 171.472 133.229V134.242C171.696 139.774 173.684 145.088 177.145 149.407C180.606 153.727 185.36 156.826 190.708 158.25C199.09 160.488 208.034 158.387 214.546 152.655C219.942 147.882 223.118 141.084 223.316 133.882V133.23V133.229C223.307 126.36 220.573 119.774 215.715 114.916C210.858 110.058 204.271 107.326 197.402 107.316V107.317Z" fill="#000B72"/>
<path d="M117.123 180.58C116.81 180.583 116.5 180.5 116.23 180.339C108.521 175.687 102.078 169.202 97.4742 161.462C97.2016 161.005 97.1568 160.447 97.353 159.952C97.5492 159.461 97.9614 159.087 98.4683 158.939C102.183 157.852 105.616 155.966 108.526 153.414C114.092 148.484 117.278 141.405 117.277 133.971V132.992C117.028 127.466 115.031 122.162 111.573 117.844C108.116 113.526 103.377 110.417 98.0402 108.966C97.5254 108.823 97.1066 108.449 96.9065 107.954C96.6997 107.464 96.7327 106.907 96.9934 106.443C101.499 98.6652 107.846 92.1128 115.476 87.3608C116.006 87.054 116.661 87.054 117.191 87.3608C117.728 87.6452 118.075 88.1944 118.101 88.8027C118.499 97.833 123.573 106.005 131.493 110.363C139.413 114.723 149.032 114.64 156.875 110.145C164.718 105.651 169.651 97.3933 169.894 88.3562C169.908 87.7426 170.248 87.1843 170.786 86.8906C171.325 86.597 171.978 86.6128 172.502 86.9315C180.213 91.5887 186.661 98.0714 191.275 105.809C191.548 106.266 191.593 106.824 191.396 107.319C191.2 107.81 190.788 108.184 190.281 108.332C184.859 109.879 180.087 113.144 176.681 117.638C173.277 122.133 171.425 127.612 171.404 133.249V134.261C171.636 139.798 173.635 145.115 177.11 149.433C180.585 153.751 185.35 156.843 190.709 158.253C191.225 158.394 191.645 158.765 191.847 159.26C192.048 159.754 192.009 160.315 191.739 160.776C187.237 168.551 180.89 175.1 173.257 179.842C172.726 180.148 172.072 180.148 171.541 179.842C171.004 179.556 170.658 179.008 170.631 178.4C170.234 169.369 165.159 161.198 157.239 156.839C149.319 152.479 139.7 152.562 131.857 157.057C124.015 161.552 119.081 169.809 118.839 178.846C118.839 179.302 118.658 179.738 118.337 180.06C118.014 180.382 117.578 180.563 117.123 180.563L117.123 180.58ZM101.558 161.532V161.531C105.263 167.189 110.044 172.063 115.63 175.878C116.811 166.386 122.543 158.065 130.991 153.58C139.438 149.095 149.543 149.008 158.066 153.348C166.59 157.688 172.464 165.91 173.806 175.38C179.278 171.488 183.941 166.568 187.534 160.896C182.025 158.935 177.227 155.37 173.758 150.661C170.291 145.952 168.311 140.312 168.074 134.468V133.233V133.232C168.099 127.238 169.95 121.394 173.382 116.48C176.812 111.566 181.661 107.813 187.278 105.723C183.577 100.047 178.788 95.159 173.188 91.3417C171.989 100.816 166.254 109.114 157.816 113.586C149.378 118.057 139.292 118.144 130.779 113.818C122.266 109.491 116.391 101.293 115.029 91.8394C109.551 95.7187 104.886 100.633 101.3 106.307C106.81 108.267 111.603 111.838 115.058 116.558C118.513 121.276 120.47 126.925 120.675 132.769V133.969V133.971C120.662 142.361 117.064 150.347 110.79 155.92C108.079 158.335 104.95 160.236 101.557 161.531L101.558 161.532Z" fill="#000B72"/>
<path fill-rule="evenodd" clip-rule="evenodd" d="M677.633 194.893C674.236 195.486 670.401 195.864 666.365 195.853C651.043 195.793 632.699 189.943 623.744 168.162C623.116 166.632 621.367 165.906 619.844 166.536C618.322 167.167 617.599 168.924 618.226 170.455C628.353 195.072 649.02 201.786 666.347 201.853C671.926 201.871 677.144 201.186 681.552 200.203C690.066 207.811 700.773 209.196 710.697 207.145C720.49 205.122 729.465 199.729 734.642 194.005C745.212 182.31 749.75 171.769 750.735 162.318C750.878 162.162 751.01 161.982 751.123 161.791C757.005 151.603 760.373 139.77 760.373 127.152C760.373 88.9843 729.537 58 691.553 58C653.568 58 622.726 88.9833 622.726 127.152C622.726 160.53 646.312 188.417 677.631 194.891L677.633 194.893ZM688.673 198.114C695.063 202.195 702.528 202.71 709.489 201.271C717.957 199.519 725.75 194.917 730.222 189.967C741.849 177.114 745.538 165.936 744.9 156.12C744.093 143.646 736.557 133.482 730.205 125.147C724.496 144.09 716.876 149.418 708.182 154.434C702.408 157.77 696.048 160.884 689.391 168.553C684.823 173.814 682.225 180.846 682.243 186.858C682.255 189.336 682.691 191.641 683.712 193.483C686.112 192.769 688.071 191.976 689.427 191.22C692.669 189.414 695.774 187.464 698.718 185.4C698.658 185.268 698.604 185.131 698.569 184.993C697.154 180.042 696.651 176.341 697.524 171.186C697.799 169.554 699.345 168.456 700.97 168.732C702.593 169.013 703.686 170.561 703.412 172.194C702.814 175.716 703.053 178.398 703.829 181.56C707.394 178.698 710.649 175.668 713.52 172.524C711.215 167.484 710.948 165.732 711.311 160.086C711.419 158.436 712.84 157.182 714.488 157.291C716.13 157.398 717.379 158.825 717.271 160.482C717.068 163.632 717.121 165.217 717.839 167.317C720.088 164.31 721.983 161.225 723.457 158.124C724.167 156.631 725.946 156 727.439 156.708C728.927 157.422 729.553 159.217 728.85 160.71C727.07 164.455 724.735 168.174 721.923 171.798C724.376 172.303 726.664 171.955 728.532 171.271C730.08 170.7 731.792 171.505 732.36 173.059C732.921 174.612 732.127 176.335 730.581 176.905C727.046 178.2 722.489 178.698 717.712 176.779C715.121 179.593 712.255 182.323 709.144 184.926C711.521 185.299 713.915 185.173 715.999 184.597C717.594 184.159 719.236 185.1 719.672 186.697C720.107 188.293 719.17 189.949 717.582 190.381C713.265 191.575 707.974 191.364 703.28 189.493C699.841 191.983 696.174 194.323 692.329 196.464C691.361 197.005 690.131 197.563 688.674 198.114L688.673 198.114ZM661.241 71.8247C650.905 77.5607 642.336 86.135 636.592 96.5038C639.518 98.435 640.922 101.628 641.68 105.449C642.193 108.035 642.426 110.928 642.993 113.682C643.453 115.89 644.11 118.02 645.615 119.64C647.507 121.685 649.843 123.246 652.063 124.908C654.721 126.887 657.229 129.011 659.062 131.849C660.913 134.73 661.546 137.747 661.958 140.82C662.286 143.237 662.435 145.685 663.367 148.061C663.988 149.663 665.212 150.918 666.24 152.256C667.822 154.32 669.064 156.516 669.136 159.306C669.225 162.942 667.911 166.584 665.994 170.135C663.911 173.994 661.08 177.756 659.295 181.356C664.525 184.512 670.251 186.918 676.325 188.442C676.295 187.926 676.277 187.405 676.271 186.876C676.253 179.568 679.34 170.999 684.893 164.61C692.113 156.3 698.95 152.844 705.203 149.232C713.693 144.33 720.829 138.966 726.03 117.749C726.305 116.616 727.212 115.745 728.347 115.523C729.488 115.295 730.653 115.752 731.339 116.694C737.71 125.459 747.228 136.494 750.094 150.161C752.877 143.028 754.4 135.269 754.4 127.152C754.4 112.847 749.658 99.6418 741.663 89.0536C739.275 90.4143 737.25 92.6348 735.22 94.897C732.073 98.4007 728.974 102.049 725.337 104.168C721.008 106.681 716.058 107.785 711.167 108.968C706.951 109.994 702.778 111.056 699.297 113.664C696.61 115.681 692.322 120.763 687.874 123.745C683.927 126.392 679.806 127.406 676.206 125.514C674.886 124.819 673.8 123.53 673.042 121.831C671.93 119.33 671.549 115.747 671.058 113.995C668.706 105.535 663.469 98.3469 660.991 90.0487C659.217 84.1209 660.143 77.9107 661.241 71.8263L661.241 71.8247ZM633.887 102.006C630.549 109.709 628.698 118.218 628.698 127.152C628.698 148.008 638.777 166.52 654.309 178.019C655.79 175.241 657.742 172.361 659.503 169.44C661.475 166.163 663.248 162.845 663.165 159.455C663.117 157.619 661.88 156.378 660.805 155.021C659.635 153.545 658.494 152.027 657.808 150.252C656.698 147.412 656.428 144.503 656.04 141.622C655.747 139.403 655.383 137.189 654.046 135.107C652.612 132.881 650.582 131.272 648.499 129.719C645.985 127.841 643.387 126.041 641.244 123.731C637.708 119.92 636.986 114.322 636.239 109.144C636.007 107.494 635.75 105.91 635.29 104.506C634.967 103.541 634.556 102.665 633.886 102.005L633.887 102.006ZM737.811 84.4248C726.323 71.873 709.847 64.0019 691.552 64.0019C683.174 64.0019 675.178 65.652 667.863 68.6453C666.645 75.149 664.788 81.9058 666.705 88.3248C669.194 96.6539 674.443 103.883 676.808 112.38C677.142 113.573 677.405 115.668 677.913 117.635C678.074 118.247 678.259 118.847 678.493 119.382C678.642 119.711 678.714 120.059 678.97 120.192C680.732 121.116 682.63 120.047 684.558 118.752C688.918 115.83 693.092 110.825 695.725 108.852C699.857 105.756 704.76 104.352 709.77 103.133C714.099 102.083 718.512 101.195 722.346 98.9692C725.486 97.1451 728.072 93.8987 730.789 90.8746C732.993 88.4211 735.28 86.1055 737.811 84.4248Z" fill="#025100"/>
<path d="M298.406 528.016H292.562L292.531 524.797H297.438C298.302 524.797 299.01 524.688 299.562 524.469C300.115 524.24 300.526 523.911 300.797 523.484C301.078 523.047 301.219 522.516 301.219 521.891C301.219 521.182 301.083 520.609 300.812 520.172C300.552 519.734 300.141 519.417 299.578 519.219C299.026 519.021 298.312 518.922 297.438 518.922H294.188V538H289.5V515.25H297.438C298.76 515.25 299.943 515.375 300.984 515.625C302.036 515.875 302.927 516.255 303.656 516.766C304.385 517.276 304.943 517.922 305.328 518.703C305.714 519.474 305.906 520.391 305.906 521.453C305.906 522.391 305.693 523.255 305.266 524.047C304.849 524.839 304.188 525.484 303.281 525.984C302.385 526.484 301.214 526.76 299.766 526.812L298.406 528.016ZM298.203 538H291.281L293.109 534.344H298.203C299.026 534.344 299.698 534.214 300.219 533.953C300.74 533.682 301.125 533.318 301.375 532.859C301.625 532.401 301.75 531.875 301.75 531.281C301.75 530.615 301.635 530.036 301.406 529.547C301.188 529.057 300.833 528.682 300.344 528.422C299.854 528.151 299.208 528.016 298.406 528.016H293.891L293.922 524.797H299.547L300.625 526.062C302.01 526.042 303.125 526.286 303.969 526.797C304.823 527.297 305.443 527.948 305.828 528.75C306.224 529.552 306.422 530.411 306.422 531.328C306.422 532.786 306.104 534.016 305.469 535.016C304.833 536.005 303.901 536.75 302.672 537.25C301.453 537.75 299.964 538 298.203 538ZM319.656 533.953V521.094H324.156V538H319.922L319.656 533.953ZM320.156 530.484L321.484 530.453C321.484 531.578 321.354 532.625 321.094 533.594C320.833 534.552 320.443 535.385 319.922 536.094C319.401 536.792 318.745 537.339 317.953 537.734C317.161 538.12 316.229 538.312 315.156 538.312C314.333 538.312 313.573 538.198 312.875 537.969C312.188 537.729 311.594 537.359 311.094 536.859C310.604 536.349 310.219 535.698 309.938 534.906C309.667 534.104 309.531 533.141 309.531 532.016V521.094H314.031V532.047C314.031 532.547 314.089 532.969 314.203 533.312C314.328 533.656 314.5 533.938 314.719 534.156C314.938 534.375 315.193 534.531 315.484 534.625C315.786 534.719 316.12 534.766 316.484 534.766C317.411 534.766 318.141 534.578 318.672 534.203C319.214 533.828 319.594 533.318 319.812 532.672C320.042 532.016 320.156 531.286 320.156 530.484ZM332.344 521.094V538H327.828V521.094H332.344ZM327.547 516.688C327.547 516.031 327.776 515.49 328.234 515.062C328.693 514.635 329.307 514.422 330.078 514.422C330.839 514.422 331.448 514.635 331.906 515.062C332.375 515.49 332.609 516.031 332.609 516.688C332.609 517.344 332.375 517.885 331.906 518.312C331.448 518.74 330.839 518.953 330.078 518.953C329.307 518.953 328.693 518.74 328.234 518.312C327.776 517.885 327.547 517.344 327.547 516.688ZM340.812 514V538H336.297V514H340.812ZM352.812 521.094V524.281H342.969V521.094H352.812ZM345.406 516.922H349.906V532.906C349.906 533.396 349.969 533.771 350.094 534.031C350.229 534.292 350.427 534.474 350.688 534.578C350.948 534.672 351.276 534.719 351.672 534.719C351.953 534.719 352.203 534.708 352.422 534.688C352.651 534.656 352.844 534.625 353 534.594L353.016 537.906C352.63 538.031 352.214 538.13 351.766 538.203C351.318 538.276 350.823 538.312 350.281 538.312C349.292 538.312 348.427 538.151 347.688 537.828C346.958 537.495 346.396 536.964 346 536.234C345.604 535.505 345.406 534.547 345.406 533.359V516.922ZM371.125 538.312C369.812 538.312 368.635 538.104 367.594 537.688C366.552 537.26 365.667 536.672 364.938 535.922C364.219 535.172 363.667 534.302 363.281 533.312C362.896 532.312 362.703 531.25 362.703 530.125V529.5C362.703 528.219 362.885 527.047 363.25 525.984C363.615 524.922 364.135 524 364.812 523.219C365.5 522.438 366.333 521.839 367.312 521.422C368.292 520.995 369.396 520.781 370.625 520.781C371.823 520.781 372.885 520.979 373.812 521.375C374.74 521.771 375.516 522.333 376.141 523.062C376.776 523.792 377.255 524.667 377.578 525.688C377.901 526.698 378.062 527.823 378.062 529.062V530.938H364.625V527.938H373.641V527.594C373.641 526.969 373.526 526.411 373.297 525.922C373.078 525.422 372.745 525.026 372.297 524.734C371.849 524.443 371.276 524.297 370.578 524.297C369.984 524.297 369.474 524.427 369.047 524.688C368.62 524.948 368.271 525.312 368 525.781C367.74 526.25 367.542 526.802 367.406 527.438C367.281 528.062 367.219 528.75 367.219 529.5V530.125C367.219 530.802 367.312 531.427 367.5 532C367.698 532.573 367.974 533.068 368.328 533.484C368.693 533.901 369.13 534.224 369.641 534.453C370.161 534.682 370.75 534.797 371.406 534.797C372.219 534.797 372.974 534.641 373.672 534.328C374.38 534.005 374.99 533.521 375.5 532.875L377.688 535.25C377.333 535.76 376.849 536.25 376.234 536.719C375.63 537.188 374.901 537.573 374.047 537.875C373.193 538.167 372.219 538.312 371.125 538.312ZM385.031 524.703V538H380.531V521.094H384.75L385.031 524.703ZM384.375 528.953H383.156C383.156 527.703 383.318 526.578 383.641 525.578C383.964 524.568 384.417 523.708 385 523C385.583 522.281 386.276 521.734 387.078 521.359C387.891 520.974 388.797 520.781 389.797 520.781C390.589 520.781 391.312 520.896 391.969 521.125C392.625 521.354 393.188 521.719 393.656 522.219C394.135 522.719 394.5 523.38 394.75 524.203C395.01 525.026 395.141 526.031 395.141 527.219V538H390.609V527.203C390.609 526.453 390.505 525.87 390.297 525.453C390.089 525.036 389.781 524.745 389.375 524.578C388.979 524.401 388.49 524.312 387.906 524.312C387.302 524.312 386.776 524.432 386.328 524.672C385.891 524.911 385.526 525.245 385.234 525.672C384.953 526.089 384.74 526.578 384.594 527.141C384.448 527.703 384.375 528.307 384.375 528.953ZM404.312 534.719L408.062 521.094H412.766L407.062 538H404.219L404.312 534.719ZM401.734 521.094L405.5 534.734L405.578 538H402.719L397.016 521.094H401.734ZM419.531 521.094V538H415.016V521.094H419.531ZM414.734 516.688C414.734 516.031 414.964 515.49 415.422 515.062C415.88 514.635 416.495 514.422 417.266 514.422C418.026 514.422 418.635 514.635 419.094 515.062C419.562 515.49 419.797 516.031 419.797 516.688C419.797 517.344 419.562 517.885 419.094 518.312C418.635 518.74 418.026 518.953 417.266 518.953C416.495 518.953 415.88 518.74 415.422 518.312C414.964 517.885 414.734 517.344 414.734 516.688ZM427.75 524.781V538H423.25V521.094H427.484L427.75 524.781ZM432.844 520.984L432.766 525.156C432.547 525.125 432.281 525.099 431.969 525.078C431.667 525.047 431.391 525.031 431.141 525.031C430.505 525.031 429.953 525.115 429.484 525.281C429.026 525.438 428.641 525.672 428.328 525.984C428.026 526.297 427.797 526.677 427.641 527.125C427.495 527.573 427.411 528.083 427.391 528.656L426.484 528.375C426.484 527.281 426.594 526.276 426.812 525.359C427.031 524.432 427.349 523.625 427.766 522.938C428.193 522.25 428.714 521.719 429.328 521.344C429.943 520.969 430.646 520.781 431.438 520.781C431.688 520.781 431.943 520.802 432.203 520.844C432.464 520.875 432.677 520.922 432.844 520.984ZM433.781 529.719V529.391C433.781 528.151 433.958 527.01 434.312 525.969C434.667 524.917 435.182 524.005 435.859 523.234C436.536 522.464 437.37 521.865 438.359 521.438C439.349 521 440.484 520.781 441.766 520.781C443.047 520.781 444.188 521 445.188 521.438C446.188 521.865 447.026 522.464 447.703 523.234C448.391 524.005 448.911 524.917 449.266 525.969C449.62 527.01 449.797 528.151 449.797 529.391V529.719C449.797 530.948 449.62 532.089 449.266 533.141C448.911 534.182 448.391 535.094 447.703 535.875C447.026 536.646 446.193 537.245 445.203 537.672C444.214 538.099 443.078 538.312 441.797 538.312C440.516 538.312 439.375 538.099 438.375 537.672C437.385 537.245 436.547 536.646 435.859 535.875C435.182 535.094 434.667 534.182 434.312 533.141C433.958 532.089 433.781 530.948 433.781 529.719ZM438.281 529.391V529.719C438.281 530.427 438.344 531.089 438.469 531.703C438.594 532.318 438.792 532.859 439.062 533.328C439.344 533.786 439.708 534.146 440.156 534.406C440.604 534.667 441.151 534.797 441.797 534.797C442.422 534.797 442.958 534.667 443.406 534.406C443.854 534.146 444.214 533.786 444.484 533.328C444.755 532.859 444.953 532.318 445.078 531.703C445.214 531.089 445.281 530.427 445.281 529.719V529.391C445.281 528.703 445.214 528.057 445.078 527.453C444.953 526.839 444.75 526.297 444.469 525.828C444.198 525.349 443.839 524.974 443.391 524.703C442.943 524.432 442.401 524.297 441.766 524.297C441.13 524.297 440.589 524.432 440.141 524.703C439.703 524.974 439.344 525.349 439.062 525.828C438.792 526.297 438.594 526.839 438.469 527.453C438.344 528.057 438.281 528.703 438.281 529.391ZM456.969 524.703V538H452.469V521.094H456.688L456.969 524.703ZM456.312 528.953H455.094C455.094 527.703 455.255 526.578 455.578 525.578C455.901 524.568 456.354 523.708 456.938 523C457.521 522.281 458.214 521.734 459.016 521.359C459.828 520.974 460.734 520.781 461.734 520.781C462.526 520.781 463.25 520.896 463.906 521.125C464.562 521.354 465.125 521.719 465.594 522.219C466.073 522.719 466.438 523.38 466.688 524.203C466.948 525.026 467.078 526.031 467.078 527.219V538H462.547V527.203C462.547 526.453 462.443 525.87 462.234 525.453C462.026 525.036 461.719 524.745 461.312 524.578C460.917 524.401 460.427 524.312 459.844 524.312C459.24 524.312 458.714 524.432 458.266 524.672C457.828 524.911 457.464 525.245 457.172 525.672C456.891 526.089 456.677 526.578 456.531 527.141C456.385 527.703 456.312 528.307 456.312 528.953ZM475 524.594V538H470.484V521.094H474.719L475 524.594ZM474.375 528.953H473.125C473.125 527.776 473.266 526.693 473.547 525.703C473.839 524.703 474.26 523.839 474.812 523.109C475.375 522.37 476.068 521.797 476.891 521.391C477.714 520.984 478.667 520.781 479.75 520.781C480.5 520.781 481.188 520.896 481.812 521.125C482.438 521.344 482.974 521.693 483.422 522.172C483.88 522.641 484.234 523.255 484.484 524.016C484.734 524.766 484.859 525.667 484.859 526.719V538H480.359V527.219C480.359 526.448 480.255 525.854 480.047 525.438C479.839 525.021 479.542 524.729 479.156 524.562C478.781 524.396 478.328 524.312 477.797 524.312C477.214 524.312 476.703 524.432 476.266 524.672C475.839 524.911 475.484 525.245 475.203 525.672C474.922 526.089 474.714 526.578 474.578 527.141C474.443 527.703 474.375 528.307 474.375 528.953ZM484.438 528.438L482.828 528.641C482.828 527.536 482.964 526.51 483.234 525.562C483.516 524.615 483.927 523.781 484.469 523.062C485.021 522.344 485.703 521.786 486.516 521.391C487.328 520.984 488.266 520.781 489.328 520.781C490.141 520.781 490.88 520.901 491.547 521.141C492.214 521.37 492.781 521.74 493.25 522.25C493.729 522.75 494.094 523.406 494.344 524.219C494.604 525.031 494.734 526.026 494.734 527.203V538H490.219V527.203C490.219 526.422 490.115 525.828 489.906 525.422C489.708 525.005 489.417 524.719 489.031 524.562C488.656 524.396 488.208 524.312 487.688 524.312C487.146 524.312 486.672 524.422 486.266 524.641C485.859 524.849 485.521 525.141 485.25 525.516C484.979 525.891 484.776 526.328 484.641 526.828C484.505 527.318 484.438 527.854 484.438 528.438ZM506 538.312C504.688 538.312 503.51 538.104 502.469 537.688C501.427 537.26 500.542 536.672 499.812 535.922C499.094 535.172 498.542 534.302 498.156 533.312C497.771 532.312 497.578 531.25 497.578 530.125V529.5C497.578 528.219 497.76 527.047 498.125 525.984C498.49 524.922 499.01 524 499.688 523.219C500.375 522.438 501.208 521.839 502.188 521.422C503.167 520.995 504.271 520.781 505.5 520.781C506.698 520.781 507.76 520.979 508.688 521.375C509.615 521.771 510.391 522.333 511.016 523.062C511.651 523.792 512.13 524.667 512.453 525.688C512.776 526.698 512.938 527.823 512.938 529.062V530.938H499.5V527.938H508.516V527.594C508.516 526.969 508.401 526.411 508.172 525.922C507.953 525.422 507.62 525.026 507.172 524.734C506.724 524.443 506.151 524.297 505.453 524.297C504.859 524.297 504.349 524.427 503.922 524.688C503.495 524.948 503.146 525.312 502.875 525.781C502.615 526.25 502.417 526.802 502.281 527.438C502.156 528.062 502.094 528.75 502.094 529.5V530.125C502.094 530.802 502.188 531.427 502.375 532C502.573 532.573 502.849 533.068 503.203 533.484C503.568 533.901 504.005 534.224 504.516 534.453C505.036 534.682 505.625 534.797 506.281 534.797C507.094 534.797 507.849 534.641 508.547 534.328C509.255 534.005 509.865 533.521 510.375 532.875L512.562 535.25C512.208 535.76 511.724 536.25 511.109 536.719C510.505 537.188 509.776 537.573 508.922 537.875C508.068 538.167 507.094 538.312 506 538.312ZM519.906 524.703V538H515.406V521.094H519.625L519.906 524.703ZM519.25 528.953H518.031C518.031 527.703 518.193 526.578 518.516 525.578C518.839 524.568 519.292 523.708 519.875 523C520.458 522.281 521.151 521.734 521.953 521.359C522.766 520.974 523.672 520.781 524.672 520.781C525.464 520.781 526.188 520.896 526.844 521.125C527.5 521.354 528.062 521.719 528.531 522.219C529.01 522.719 529.375 523.38 529.625 524.203C529.885 525.026 530.016 526.031 530.016 527.219V538H525.484V527.203C525.484 526.453 525.38 525.87 525.172 525.453C524.964 525.036 524.656 524.745 524.25 524.578C523.854 524.401 523.365 524.312 522.781 524.312C522.177 524.312 521.651 524.432 521.203 524.672C520.766 524.911 520.401 525.245 520.109 525.672C519.828 526.089 519.615 526.578 519.469 527.141C519.323 527.703 519.25 528.307 519.25 528.953ZM541.719 521.094V524.281H531.875V521.094H541.719ZM534.312 516.922H538.812V532.906C538.812 533.396 538.875 533.771 539 534.031C539.135 534.292 539.333 534.474 539.594 534.578C539.854 534.672 540.182 534.719 540.578 534.719C540.859 534.719 541.109 534.708 541.328 534.688C541.557 534.656 541.75 534.625 541.906 534.594L541.922 537.906C541.536 538.031 541.12 538.13 540.672 538.203C540.224 538.276 539.729 538.312 539.188 538.312C538.198 538.312 537.333 538.151 536.594 537.828C535.865 537.495 535.302 536.964 534.906 536.234C534.51 535.505 534.312 534.547 534.312 533.359V516.922Z" fill="black"/>
<path d="M416 492L430.434 467H401.566L416 492ZM413.5 409V469.5H418.5V409H413.5Z" fill="black"/>
</g>
<defs>
<linearGradient id="paint0_linear_0_1" x1="417" y1="261" x2="260.322" y2="141.906" gradientUnits="userSpaceOnUse">
<stop/>
<stop offset="0.0001"/>
<stop offset="0.104167" stop-color="#00074A"/>
<stop offset="1" stop-color="#000B72"/>
</linearGradient>
<linearGradient id="paint1_linear_0_1" x1="413" y1="261" x2="569.678" y2="141.906" gradientUnits="userSpaceOnUse">
<stop/>
<stop offset="0.130208" stop-color="#011D00"/>
<stop offset="1" stop-color="#025100"/>
</linearGradient>
<clipPath id="clip0_0_1">
<rect width="831" height="768" fill="white"/>
</clipPath>
</defs>
</svg>
